<?xml version="1.0" encoding="utf-8"?>
<!-- Generator: Adobe Illustrator 24.2.1, SVG Export Plug-In . SVG Version: 6.00 Build 0)  -->
<svg version="1.1" id="Capa_1" xmlns="http://www.w3.org/2000/svg" xmlns:xlink="http://www.w3.org/1999/xlink" x="0px" y="0px"
	 viewBox="0 0 186.5 85.9" style="enable-background:new 0 0 186.5 85.9;" xml:space="preserve">
<style type="text/css">
	.st0{enable-background:new    ;}
	.st1{fill:#2F97EB;}
	.st2{fill:#A2D3FE;}
	.st3{fill:#54CBD3;}
	.st4{fill:#5FE6EF;}
	.st5{fill:#FEFEFE;}
	.st6{fill:#2B8BD9;}
	.st7{fill:#BEB9E6;}
	.st8{fill:#E8EDFF;}
	.st9{fill:#59D7E0;}
	.st10{fill:#4FC0C8;}
	.st11{fill:#FF93B9;}
	.st12{fill:#F7F1E1;}
	.st13{fill:#392C61;}
</style>
<g id="BACKGROUND">
</g>
<g id="OBJECTS">
	<g class="st0">
		<path class="st1" d="M8.6,25.8c-0.4,0.4-0.9,0.8-1.6,1c0.5,0.1,0.9,0.3,1.2,0.8c0.3,0.4,0.5,0.9,0.5,1.5c0,0.2,0,0.3,0,0.5
			c-0.1,0.6-0.3,1.1-0.7,1.5c-0.4,0.5-0.9,0.8-1.5,1.1c-0.6,0.3-1.3,0.4-2,0.4H0l2-11.3h4.3c1,0,1.8,0.2,2.4,0.7
			c0.5,0.4,0.8,1,0.8,1.7c0,0.2,0,0.3,0,0.5C9.3,24.8,9,25.4,8.6,25.8z M6.9,28.9c0-0.4-0.2-0.8-0.5-1.1c-0.3-0.3-0.8-0.4-1.3-0.4
			H2.7l-0.6,3.6h2.5c0.6,0,1.1-0.2,1.6-0.5c0.4-0.3,0.7-0.7,0.8-1.3C6.9,29.1,6.9,29,6.9,28.9z M7.5,24.1c0-0.4-0.1-0.7-0.4-1
			c-0.3-0.2-0.7-0.4-1.2-0.4H3.6L3,26.1h2.3c0.6,0,1.1-0.1,1.5-0.4c0.4-0.3,0.6-0.7,0.7-1.2C7.5,24.3,7.5,24.1,7.5,24.1z"/>
		<path class="st1" d="M14,21.3l-2,11.3h-1.8l2-11.3H14z"/>
		<path class="st1" d="M18,22.7l-0.6,3.4h3.9l-0.2,1.4h-3.9l-0.6,3.5h4.4l-0.3,1.4h-6.2l2-11.3h6.2l-0.3,1.4H18z"/>
		<path class="st1" d="M32.2,32.5h-1.8l-4.1-8.4l-1.5,8.4H23l2-11.3h1.8l4.1,8.4l1.5-8.4h1.8L32.2,32.5z"/>
		<path class="st1" d="M37.7,21.3l1.7,9.3l5-9.3h2l-6.2,11.3H38l-2.3-11.3H37.7z"/>
		<path class="st1" d="M49.4,22.7l-0.6,3.4h3.9l-0.2,1.4h-3.9L48,31.1h4.4l-0.3,1.4h-6.2l2-11.3h6.2l-0.3,1.4H49.4z"/>
		<path class="st1" d="M63.6,32.5h-1.8l-4.1-8.4l-1.5,8.4h-1.8l2-11.3h1.8l4.1,8.4l1.5-8.4h1.8L63.6,32.5z"/>
		<path class="st1" d="M69.9,21.3l-2,11.3H66l2-11.3H69.9z"/>
		<path class="st1" d="M78.7,21.8c0.8,0.4,1.4,0.9,1.8,1.5c0.4,0.7,0.6,1.5,0.6,2.4c0,0.4,0,0.8-0.1,1.2c-0.2,1.1-0.6,2.1-1.3,3
			c-0.6,0.8-1.4,1.5-2.4,1.9c-1,0.4-2.1,0.7-3.3,0.7h-3.7l2-11.3H76C77,21.3,77.9,21.5,78.7,21.8z M77.4,30c0.8-0.7,1.4-1.8,1.6-3.1
			c0.1-0.4,0.1-0.7,0.1-1.1c0-1-0.3-1.8-0.9-2.3c-0.6-0.5-1.4-0.8-2.6-0.8h-1.8l-1.5,8.4h1.8C75.5,31.1,76.6,30.8,77.4,30z"/>
		<path class="st1" d="M84.4,32c-0.7-0.4-1.3-1-1.7-1.7c-0.4-0.7-0.6-1.5-0.6-2.5c0-1.3,0.3-2.4,0.9-3.5c0.6-1,1.4-1.8,2.4-2.4
			c1-0.6,2.2-0.9,3.4-0.9c1,0,1.8,0.2,2.5,0.6c0.7,0.4,1.3,1,1.7,1.7c0.4,0.7,0.6,1.5,0.6,2.5c0,1.3-0.3,2.4-0.9,3.5
			c-0.6,1-1.4,1.8-2.4,2.4c-1,0.6-2.2,0.9-3.4,0.9C86,32.6,85.2,32.4,84.4,32z M89.6,30.3c0.7-0.5,1.2-1.1,1.6-1.8
			c0.4-0.8,0.6-1.6,0.6-2.5c0-1-0.3-1.8-0.8-2.3c-0.6-0.6-1.3-0.8-2.3-0.8c-0.9,0-1.7,0.2-2.4,0.7c-0.7,0.4-1.2,1-1.6,1.8
			c-0.4,0.8-0.6,1.6-0.6,2.5c0,1,0.3,1.8,0.8,2.3c0.6,0.6,1.3,0.9,2.3,0.9C88.1,31,88.9,30.8,89.6,30.3z"/>
	</g>
	<g>
		<g>
			<path class="st1" d="M151.3,70.1c-0.8,0.1-1.5,0.2-2.2,0.3c-0.1-0.1-0.2-0.1-0.3-0.1c0,0,0,0,0,0c-0.3,0-0.6,0.1-0.9,0.2
				c-0.3,0.1-0.6,0.2-0.9,0.4c-0.3,0.2-0.6,0.4-0.9,0.6c-0.2,0.1-0.4,0.2-0.6,0.3c-0.1,0.1-0.2,0.1-0.3,0.2c-0.1,0-0.1,0.1-0.1,0.1
				c0,0-0.1,0.1-0.1,0.1c-0.1,0.1-0.2,0.3-0.1,0.5c-0.3,0.3-0.6,0.7-0.8,1.1c-0.1,0.3-0.3,0.6-0.4,0.9c-0.1,0.3-0.2,0.7-0.2,1.1
				c0,0.6,0,1.3,0.3,2c0.1,0.3,0.2,0.6,0.4,0.9c0.1,0.3,0.3,0.5,0.5,0.8c0.7,1,1.7,1.9,3,2.6c1,0.6,2.1,1,3.3,1.4
				c1.1,0.3,2.3,0.5,3.6,0.5c0.3,0,0.5,0,0.8,0c0.9,0,1.9-0.1,2.9-0.2c0.6-0.1,1.2-0.2,1.9-0.4c0.6-0.1,1.2-0.3,1.8-0.5
				c1.2-0.4,2.4-0.9,3.4-1.4c1.1-0.6,2.1-1.2,3-1.9c0.5-0.4,0.9-0.7,1.3-1.1c0,0,0.1-0.1,0.1-0.1c0.1-0.1,0.1-0.1,0.2-0.2
				c0,0,0,0,0,0c0,0,0,0,0,0c-1-1.2-2-2.3-3.1-3.1c-0.5-0.4-1.1-0.8-1.7-1.3c-0.6-0.4-1.2-0.8-1.8-1.1c-0.6-0.3-1.3-0.6-2-0.9
				c-0.7-0.3-1.3-0.5-1.9-0.7c-1.2-0.4-2.5-0.6-3.9-0.8c-0.9-0.1-1.8-0.2-2.6-0.2C152.4,70.1,151.8,70.1,151.3,70.1"/>
			<path class="st2" d="M168.4,78.3C168.4,78.3,168.3,78.3,168.4,78.3c-1.1-0.2-2.1-0.3-3.1-0.5l0.1,0c0.1-0.1,0.1-0.1,0.2-0.2
				c0.2-0.1,0.3-0.2,0.5-0.4c0.2-0.1,0.3-0.2,0.5-0.3c0.2-0.1,0.4-0.1,0.6-0.2c0,0,0,0,0,0c0,0,0,0,0-0.1c0,0,0,0,0,0c0,0,0,0,0,0
				c-0.5,0.1-0.9,0.3-1.2,0.4c-0.2,0.1-0.4,0.2-0.5,0.3c-0.1,0.1-0.3,0.2-0.4,0.3c-0.5-0.1-1-0.1-1.4-0.2l-0.3,0
				c-0.7-0.1-1.4-0.2-2.1-0.3l-0.1,0l0,0l0,0l0.1-0.1c0.1-0.1,0.2-0.3,0.4-0.4l0,0l0,0c0.3-0.3,0.6-0.5,0.9-0.7
				c0.3-0.2,0.6-0.4,1-0.6c0.3-0.2,0.6-0.3,0.9-0.5c0,0,0.1-0.1,0-0.1c0,0,0,0,0,0c0,0,0,0,0,0c0,0,0,0,0,0l-0.1,0.1l-0.1,0
				c-0.1,0-0.2,0.1-0.3,0.2c-0.2,0.1-0.4,0.2-0.5,0.3c-0.4,0.2-0.7,0.4-1,0.6c-0.3,0.2-0.6,0.5-0.9,0.7c-0.1,0.1-0.3,0.2-0.4,0.4
				c-0.1,0.1-0.2,0.2-0.3,0.3c0,0,0,0,0,0c0,0,0,0,0,0c0,0,0,0-0.1,0c-0.6-0.1-1.2-0.1-1.8-0.2l-0.6-0.1c-0.6-0.1-1.2-0.1-1.8-0.2
				l-0.5,0l0,0c0.1-0.2,0.3-0.4,0.4-0.5c0.2-0.3,0.5-0.5,0.7-0.8c0.4-0.4,0.8-0.7,1.2-1c0.4-0.3,0.9-0.6,1.3-0.9
				c0.3-0.2,0.6-0.3,1-0.5c0,0,0.1-0.1,0-0.1c0,0,0,0,0,0c0,0,0,0,0,0c0,0,0,0,0,0c-0.5,0.2-0.9,0.5-1.4,0.7
				c-0.4,0.2-0.9,0.5-1.4,0.9c-0.2,0.1-0.4,0.3-0.6,0.5c-0.2,0.2-0.4,0.4-0.6,0.6c-0.2,0.1-0.4,0.4-0.6,0.6
				c-0.2,0.2-0.3,0.4-0.4,0.5l-0.1,0c-0.5,0-0.9-0.1-1.4-0.1c-0.8-0.1-1.7-0.2-2.4-0.2h0c0-0.1,0.1-0.3,0.1-0.4
				c0.1-0.2,0.2-0.5,0.3-0.7c0.3-0.5,0.7-1,1.1-1.4c0.6-0.6,1.3-1.1,2-1.5c0.3-0.1,0.5-0.3,0.8-0.4c0,0,0,0,0-0.1c0,0,0-0.1,0-0.1
				c0,0,0,0,0,0l0,0l0,0c-0.2,0.1-0.5,0.2-0.7,0.3c-0.2,0.1-0.5,0.3-0.7,0.4c-0.5,0.3-1,0.7-1.5,1.1c-0.5,0.4-0.9,0.9-1.2,1.3
				c-0.2,0.2-0.3,0.5-0.5,0.7c-0.1,0.1-0.1,0.3-0.2,0.4c0,0.1,0,0.1-0.1,0.2c0,0-0.1,0-0.1,0c0,0-0.1,0-0.1,0
				c-0.6,0-1.1-0.1-1.7-0.1c-2.5-0.2-4.5-0.4-6.4-0.5h0c-0.2,0-0.4,0.1-0.4,0.3c0,0.1,0,0.2,0.1,0.3c0.1,0.1,0.2,0.1,0.2,0.1
				c0.7,0,1.4,0.1,2.1,0.1c0.8,0,1.5,0.1,2.3,0.1c0,0.4,0.1,0.8,0.2,1.3c0.1,0.5,0.3,0.9,0.6,1.5c0.1,0.2,0.3,0.5,0.4,0.7
				c0.1,0.2,0.3,0.4,0.4,0.7c0.3,0.5,0.6,0.9,0.9,1.3c0,0,0,0,0.1,0c0,0,0,0,0,0c0,0,0,0,0-0.1c0,0,0,0,0-0.1
				c-0.4-0.5-0.7-0.9-0.9-1.3c-0.2-0.3-0.3-0.5-0.4-0.7c-0.1-0.2-0.2-0.5-0.3-0.7c-0.2-0.6-0.4-1.2-0.5-1.7c0-0.2,0-0.5,0-0.8
				c1.1,0.1,2.2,0.2,3.3,0.2c0,0.1,0,0.2,0.1,0.4c0.1,0.2,0.1,0.5,0.3,0.8c0.1,0.2,0.2,0.5,0.4,0.7c0.1,0.1,0.1,0.2,0.2,0.3l0,0
				c0.1,0.1,0.1,0.2,0.2,0.3l0,0c0.1,0.2,0.3,0.4,0.5,0.6c0.2,0.2,0.4,0.4,0.6,0.6c0.3,0.4,0.7,0.8,1,1.1l0.1,0.1c0,0,0,0,0.1,0
				c0,0,0,0,0.1,0c0,0,0-0.1,0-0.1c-0.3-0.3-0.5-0.5-0.7-0.8c-0.2-0.2-0.5-0.5-0.7-0.8c-0.1-0.1-0.2-0.3-0.3-0.5
				c-0.1-0.2-0.2-0.4-0.3-0.5c-0.1-0.2-0.2-0.4-0.3-0.6c-0.1-0.2-0.2-0.4-0.3-0.6c-0.2-0.4-0.3-0.8-0.3-1.2l1,0.1l1,0.1l0,0
				c0.5,0,0.9,0.1,1.4,0.1c0.2,0,0.5,0,0.7,0.1c0.1,0.2,0.1,0.4,0.2,0.6c0.1,0.2,0.2,0.4,0.3,0.6c0.3,0.4,0.6,0.7,0.8,1
				c0.3,0.3,0.7,0.6,1,0.9l0,0c0.3,0.3,0.6,0.6,0.9,0.9c0,0,0,0,0.1,0s0,0,0.1,0c0,0,0-0.1,0-0.1c-0.3-0.3-0.6-0.6-0.8-0.8l-0.1-0.1
				c-0.1-0.1-0.2-0.2-0.2-0.2c-0.4-0.4-0.8-0.7-1.1-1.2c-0.3-0.4-0.5-0.7-0.6-1.1c-0.1-0.1-0.1-0.3-0.2-0.5l0.9,0.1l0.4,0
				c0.8,0.1,1.6,0.1,2.4,0.2c0.4,0,0.8,0.1,1.1,0.1c0.1,0.2,0.2,0.5,0.4,0.7c0.2,0.3,0.4,0.5,0.7,0.8c0.5,0.5,1.2,0.9,1.8,1.3
				c0,0,0,0,0,0c0,0,0,0,0.1,0c0,0,0-0.1,0-0.1c-0.3-0.2-0.5-0.3-0.8-0.5c-0.3-0.2-0.5-0.4-0.7-0.6c-0.2-0.2-0.4-0.4-0.6-0.7
				c-0.2-0.3-0.4-0.6-0.5-0.9l0,0l0-0.1l0.9,0.1c1,0.1,2,0.2,3.2,0.4c0,0.1,0.1,0.1,0.2,0.2c0.1,0.1,0.1,0.2,0.2,0.2
				c0.1,0.1,0.3,0.3,0.5,0.4c0.3,0.2,0.7,0.5,1.1,0.7c0,0,0,0,0,0c0,0,0,0,0.1,0c0,0,0-0.1,0-0.1c-0.1-0.1-0.2-0.1-0.3-0.2
				c-0.1-0.1-0.2-0.2-0.4-0.3c-0.2-0.2-0.4-0.3-0.6-0.5c-0.1-0.1-0.3-0.3-0.4-0.4l0.2,0c0.8,0.1,1.7,0.2,2.7,0.4
				c0.1,0,0.1-0.1,0.1-0.1C168.4,78.4,168.4,78.3,168.4,78.3z"/>
		</g>
		<g>
			<path class="st3" d="M159.9,60.2c-0.6,0-1.2,0-1.7,0.1c-0.8,0.1-1.5,0.2-2.4,0.3c-0.8,0.1-1.5,0.3-2.2,0.5
				c-1.3,0.4-2.7,0.9-4.1,1.5c-0.9,0.4-1.7,0.9-2.5,1.4c-0.5,0.3-1,0.6-1.4,1c-0.7,0.5-1.3,1-1.8,1.6c0,0-0.1,0-0.1,0
				c-0.1,0-0.1,0-0.2,0.1c0,0,0,0,0,0c-0.3,0.2-0.5,0.5-0.7,0.7c-0.2,0.3-0.4,0.5-0.6,0.9c-0.2,0.3-0.3,0.7-0.5,1
				c-0.1,0.2-0.2,0.4-0.3,0.6c-0.1,0.1-0.1,0.2-0.1,0.3c0,0.1-0.1,0.1-0.1,0.2c0,0,0,0.1,0,0.1l0,0l0,0c-0.1,0.2,0,0.4,0.2,0.5
				c-0.1,0.5-0.1,1-0.1,1.4c0,0.3,0.1,0.7,0.2,1.1c0.1,0.4,0.3,0.7,0.5,1.1c0.3,0.6,0.8,1.2,1.4,1.7c0.3,0.2,0.6,0.4,0.9,0.6
				c0.3,0.2,0.6,0.3,1,0.5c1.1,0.5,2.5,0.7,3.9,0.7c0.1,0,0.2,0,0.4,0c1.2,0,2.5-0.2,3.8-0.6c1.2-0.4,2.4-0.9,3.6-1.6
				c0.3-0.2,0.5-0.3,0.8-0.5c0.9-0.5,1.7-1.2,2.5-1.9c0.5-0.4,1-0.9,1.5-1.4c0.5-0.5,1-1,1.4-1.5c0.9-1.1,1.7-2.2,2.3-3.3
				c0.7-1.1,1.2-2.3,1.7-3.5c0.2-0.6,0.4-1.2,0.6-1.8l0-0.1l0-0.1c0-0.1,0-0.2,0-0.3c0,0,0,0,0,0c0,0,0,0,0,0
				c-1.7-0.6-3.2-0.9-4.6-1.1c-0.7-0.1-1.5-0.1-2.3-0.2C160.3,60.2,160.1,60.2,159.9,60.2"/>
			<path class="st4" d="M166.4,62.2c0,0-0.1-0.1-0.1-0.1c0,0,0,0-0.1,0c-0.9,0.5-1.9,0.9-2.8,1.4c0-0.1,0.1-0.2,0.1-0.3
				c0.1-0.2,0.1-0.4,0.2-0.6c0.1-0.2,0.2-0.3,0.3-0.5c0.1-0.2,0.2-0.3,0.4-0.5c0,0,0-0.1,0-0.1c0,0,0,0,0,0c0,0,0,0-0.1,0
				c-0.3,0.3-0.5,0.7-0.7,1c-0.1,0.2-0.2,0.4-0.3,0.6c-0.1,0.2-0.1,0.3-0.1,0.5c-0.4,0.2-0.9,0.4-1.3,0.7c-0.7,0.4-1.5,0.7-2.2,1.1
				c0,0-0.1,0-0.1,0.1c0-0.1,0-0.1,0-0.2c0-0.2,0-0.4,0.1-0.5c0.1-0.4,0.2-0.8,0.3-1.2c0.1-0.4,0.3-0.7,0.5-1.1v0
				c0.2-0.3,0.3-0.6,0.5-0.9c0,0,0-0.1,0-0.1c0,0,0,0,0,0c0,0,0,0-0.1,0c-0.1,0.2-0.2,0.3-0.3,0.5c-0.1,0.2-0.2,0.4-0.3,0.5
				c-0.2,0.3-0.3,0.7-0.5,1.1c-0.1,0.4-0.3,0.7-0.4,1.1c0,0.2-0.1,0.4-0.1,0.5c0,0.1,0,0.3-0.1,0.4c0,0,0,0,0,0c0,0,0,0,0,0.1
				c-0.5,0.3-1.1,0.6-1.6,0.9c-0.7,0.4-1.4,0.8-2.2,1.2c-0.1,0.1-0.3,0.1-0.4,0.2c0-0.2,0-0.5,0-0.7c0-0.4,0.1-0.7,0.2-1.1
				c0.1-0.5,0.2-1,0.4-1.5c0.2-0.5,0.4-1,0.6-1.5c0,0,0,0,0,0c0.2-0.3,0.3-0.7,0.5-1c0,0,0-0.1,0-0.1c0,0,0,0,0,0c0,0,0,0-0.1,0
				c-0.3,0.5-0.5,0.9-0.8,1.4c-0.2,0.5-0.5,1-0.6,1.6c-0.1,0.3-0.2,0.5-0.2,0.8c-0.1,0.3-0.1,0.6-0.2,0.8c-0.1,0.3-0.1,0.5-0.1,0.8
				c0,0.2,0,0.5,0,0.7c-0.5,0.2-0.9,0.5-1.4,0.7c-0.7,0.4-1.4,0.8-2.2,1.2c0,0,0,0,0,0c0-0.1-0.1-0.3-0.1-0.4
				c-0.1-0.3-0.1-0.5-0.1-0.8c0-0.6,0-1.2,0.1-1.8l0,0c0.2-0.8,0.5-1.6,0.8-2.4l0,0c0.1-0.3,0.3-0.6,0.5-0.9c0,0,0-0.1-0.1-0.1
				c0,0,0,0,0,0c-0.2,0.2-0.3,0.5-0.4,0.7c-0.1,0.3-0.3,0.5-0.4,0.8c-0.3,0.6-0.5,1.1-0.6,1.7c-0.2,0.6-0.3,1.2-0.3,1.8
				c0,0.3,0,0.6,0,0.9c0,0.1,0,0.3,0.1,0.4c0,0.1,0,0.1,0.1,0.2c0,0,0,0,0,0c0,0-0.1,0-0.1,0c0,0-0.1,0.1-0.1,0.1
				c-0.5,0.3-1,0.6-1.5,0.8c-1.9,1.1-3.8,2.2-5.7,3.3c-0.2,0.1-0.2,0.3-0.1,0.5c0.1,0.2,0.3,0.2,0.5,0.1c1.3-0.8,2.5-1.5,3.8-2.3
				c0.3,0.3,0.6,0.6,0.9,0.9c0.4,0.4,0.9,0.6,1.3,0.9c0.2,0.1,0.5,0.2,0.7,0.3c0.2,0.1,0.5,0.2,0.8,0.3c0.5,0.2,1,0.4,1.5,0.5
				c0,0,0.1,0,0.1,0c0,0,0-0.1,0-0.1c-0.5-0.2-1-0.4-1.5-0.6c-0.3-0.1-0.5-0.2-0.8-0.4c-0.2-0.1-0.5-0.3-0.7-0.4
				c-0.5-0.3-1-0.7-1.4-1.1c-0.2-0.2-0.3-0.4-0.5-0.7c1-0.6,1.9-1.1,2.9-1.7c0.1,0.1,0.2,0.2,0.3,0.3c0.2,0.2,0.4,0.3,0.7,0.5
				c0.2,0.1,0.5,0.3,0.7,0.4c0.1,0.1,0.3,0.1,0.4,0.2c0.1,0.1,0.3,0.1,0.4,0.1c0.3,0.1,0.5,0.2,0.8,0.2c0.3,0.1,0.6,0.1,0.8,0.2
				c0.5,0.1,1.1,0.2,1.6,0.3c0,0,0.1,0,0.1-0.1c0,0,0-0.1-0.1-0.1c-0.4-0.1-0.7-0.1-1-0.2c-0.4-0.1-0.7-0.2-1.1-0.3c0,0,0,0,0,0
				c-0.2-0.1-0.4-0.1-0.6-0.2c-0.2-0.1-0.4-0.2-0.6-0.2c-0.2-0.1-0.4-0.2-0.6-0.3c-0.2-0.1-0.4-0.2-0.5-0.3
				c-0.3-0.2-0.7-0.5-0.9-0.8c0.3-0.2,0.6-0.4,0.9-0.5c0.7-0.4,1.4-0.8,2.1-1.2c0.2-0.1,0.4-0.3,0.7-0.4c0,0,0,0,0,0
				c0.2,0.1,0.4,0.3,0.6,0.4c0.2,0.1,0.4,0.2,0.6,0.3c0.4,0.2,0.8,0.3,1.3,0.4c0.9,0.2,1.8,0.2,2.7,0.4c0,0,0.1,0,0.1-0.1
				s0-0.1-0.1-0.1c-0.5-0.1-1.1-0.2-1.6-0.3c-0.5-0.1-1.1-0.2-1.6-0.4c-0.4-0.1-0.8-0.3-1.2-0.5c-0.1-0.1-0.3-0.2-0.4-0.3
				c0.4-0.2,0.7-0.4,1.1-0.6c0.7-0.4,1.4-0.8,2.1-1.2c0.3-0.2,0.7-0.4,1-0.6c0.2,0.2,0.5,0.3,0.8,0.4c0.4,0.1,0.7,0.2,1.1,0.3
				c0.7,0.1,1.5,0.1,2.2,0.1c0,0,0.1,0,0.1-0.1c0,0,0-0.1-0.1-0.1c-0.3,0-0.6,0-1,0c-0.3,0-0.6,0-0.9-0.1c-0.3,0-0.6-0.1-0.9-0.2
				c-0.3-0.1-0.7-0.3-1-0.4c0,0,0,0,0,0c0.3-0.1,0.5-0.3,0.8-0.4c1-0.5,1.9-1,2.9-1.5c0.1,0,0.2,0.1,0.2,0.1c0.1,0,0.2,0,0.3,0.1
				c0.2,0,0.4,0.1,0.7,0.1c0.4,0,0.9,0,1.3,0c0,0,0.1,0,0.1-0.1c0,0,0-0.1-0.1-0.1c-0.1,0-0.3,0-0.4,0c-0.1,0-0.3,0-0.4,0
				c-0.2,0-0.5,0-0.7-0.1c-0.2,0-0.4-0.1-0.6-0.1c0.9-0.5,1.8-0.9,2.6-1.3C166.4,62.3,166.5,62.2,166.4,62.2z"/>
		</g>
		<g>
			<path class="st5" d="M111.7,15.6c0-0.2-1.6-0.5-3.6-0.5c0-3-0.3-5.4-0.7-5.4s-0.7,2.4-0.7,5.4c-2,0-3.5,0.2-3.5,0.5
				s1.5,0.5,3.5,0.5c0,3,0.3,5.3,0.7,5.3c0.4,0,0.7-2.3,0.7-5.3C110.1,16,111.7,15.8,111.7,15.6z"/>
			<path class="st5" d="M105.9,26.2c0-0.2-1.1-0.3-2.5-0.3c0-2.1-0.2-3.8-0.5-3.8c-0.3,0-0.5,1.7-0.5,3.8c-1.4,0-2.5,0.2-2.5,0.3
				c0,0.2,1.1,0.3,2.5,0.3c0,2.1,0.2,3.7,0.5,3.7c0.2,0,0.5-1.6,0.5-3.7C104.8,26.5,105.9,26.3,105.9,26.2z"/>
			<path class="st5" d="M118.9,9.5c0-0.1-0.8-0.2-1.8-0.2c0-1.5-0.2-2.6-0.3-2.6c-0.2,0-0.3,1.2-0.3,2.6c-1,0-1.7,0.1-1.7,0.2
				c0,0.1,0.7,0.2,1.7,0.2c0,1.5,0.2,2.6,0.3,2.6c0.2,0,0.3-1.1,0.3-2.6C118.1,9.7,118.9,9.6,118.9,9.5z"/>
			<path class="st5" d="M97.2,17.2c0-0.1-0.6-0.2-1.3-0.2c0-1.1-0.1-2-0.2-2c-0.1,0-0.2,0.9-0.2,2c-0.7,0-1.3,0.1-1.3,0.2
				s0.6,0.2,1.3,0.2c0,1.1,0.1,1.9,0.2,1.9c0.1,0,0.2-0.8,0.2-1.9C96.6,17.4,97.2,17.3,97.2,17.2z"/>
		</g>
		<g>
			<path class="st1" d="M119.1,62.3H119c-1.1,0-2.2,0-3.4,0.1c0,0,0,0,0,0c-0.5,0-1,0.1-1.5,0.1c0,0,0,0-0.1,0c0,0,0,0,0,0
				c0,0-0.1,0.1,0,0.2c0,0,0,0.1,0.1,0.1c0,0,0.1,0,0.1,0l0,0c0,0,0,0,0,0c0.5,2.8,0.9,5.7,1.2,8.5l0.1,1c0.2,1.3,0.3,2.8,0.6,4.3
				c0.1,0.7,0.2,1.4,0.3,2.1c0.1,0.6,0.2,1.4,0.3,2.1l0,0c0,0.3,0,0.5,0,0.8c0,0,0,0.1,0,0.1l0,0h0c-0.2,0-0.3,0-0.5,0h0
				c-0.1,0-0.1,0-0.1,0c0,0-0.1,0.1-0.1,0.1c0,0,0,0.1,0,0.1c0,0,0.1,0.1,0.1,0.1c0.2,0,0.3,0,0.5,0c1.1,0,2.2-0.1,3.6-0.5
				c1.1-0.2,2.2-0.6,3.2-0.9c0.3-0.1,0.6-0.2,0.8-0.2c0,0,0.1-0.1,0.1-0.1c0,0,0-0.1,0-0.1c0.2-1.2,0.3-2.5,0.2-3.9
				c0-1.3-0.1-2.7-0.3-4.1c-0.3-2.8-1-5.4-1.9-7.9c-0.2-0.6-0.5-1.3-0.8-1.9c0-0.1-0.1-0.1-0.1-0.1c0,0-0.1,0-0.1,0
				C120.8,62.4,120,62.3,119.1,62.3L119.1,62.3C119.1,62.3,119.1,62.3,119.1,62.3"/>
			<path class="st6" d="M121.4,78.5c-0.7,0.2-1.4,0.3-2.1,0.4c-0.7,0.1-1.4,0.3-2.1,0.4c-0.2,0-0.4,0.1-0.6,0.1
				c0.1,0.4,0.1,0.9,0.2,1.4l0,0c0,0.3,0,0.5,0,0.8c0,0,0,0.1,0,0.1l0,0h0c-0.2,0-0.3,0-0.5,0c-0.1,0-0.1,0-0.1,0
				c0,0-0.1,0.1-0.1,0.1c0,0,0,0.1,0,0.2c0,0,0.1,0.1,0.1,0.1c0.2,0,0.3,0,0.5,0c1.1,0,2.2-0.1,3.6-0.5c1.1-0.3,2.3-0.6,3.2-0.9
				l0.2,0c0.2-0.1,0.5-0.1,0.7-0.2c0,0,0.1-0.1,0.1-0.1c0,0,0-0.1,0-0.1c0.1-0.8,0.2-1.7,0.2-2.5C123.6,78,122.5,78.3,121.4,78.5"/>
			<path class="st6" d="M117.7,81.5c-0.7,0.1-1.3,0.2-2,0.2c0,0-0.1,0-0.1,0.1c0,0,0,0.1,0,0.1c0,0,0,0.1,0.1,0.1c0,0,0.1,0,0.1,0
				c0.7,0,1.3-0.1,2-0.2c0.1,0,0.2-0.1,0.2-0.2C117.9,81.6,117.8,81.5,117.7,81.5C117.8,81.5,117.7,81.5,117.7,81.5"/>
			<path class="st6" d="M118.1,81.5c-0.8,0.2-1.7,0.3-2.5,0.3c0,0-0.1,0-0.1,0c-0.1,0-0.1,0-0.1,0c0,0-0.1,0.1-0.1,0.1
				c0,0,0,0.1,0,0.1c0,0,0.1,0.1,0.1,0.1c0.9,0,1.9-0.1,2.8-0.3c0,0,0.1,0,0.1-0.1c0,0,0-0.1,0-0.1c0,0,0-0.1-0.1-0.1
				C118.2,81.5,118.2,81.5,118.1,81.5C118.1,81.5,118.1,81.5,118.1,81.5"/>
			<path class="st6" d="M118.3,81.4c0,0-0.1,0-0.1,0c-0.9,0.3-1.9,0.4-2.9,0.4h-0.1c-0.1,0-0.1,0-0.1,0c0,0-0.1,0.1-0.1,0.1
				c0,0,0,0.1,0,0.1c0,0,0.1,0.1,0.1,0.1c0.6,0,1.1,0,1.7-0.1c0.6-0.1,1.1-0.2,1.7-0.3c0,0,0.1-0.1,0.1-0.1c0,0,0-0.1,0-0.1
				c0,0-0.1-0.1-0.1-0.1C118.5,81.4,118.4,81.4,118.3,81.4C118.4,81.4,118.4,81.4,118.3,81.4 M118.3,81.4
				C118.3,81.4,118.2,81.4,118.3,81.4C118.2,81.4,118.3,81.4,118.3,81.4"/>
			<path class="st6" d="M119.4,81.2c-0.2,0.1-0.4,0.1-0.6,0.2c0,0,0,0,0,0c-0.9,0.3-1.9,0.4-2.8,0.4h0c-0.3,0-0.5,0-0.8,0
				c-0.1,0-0.2,0.1-0.2,0.2c0,0.1,0.1,0.2,0.2,0.2c1.5,0.1,2.9-0.2,4.3-0.6c0.1,0,0.1-0.2,0.1-0.2c0,0-0.1-0.1-0.1-0.1
				C119.5,81.2,119.5,81.2,119.4,81.2C119.4,81.2,119.4,81.2,119.4,81.2"/>
			<path class="st7" d="M120.7,64.6c0.5,1.1,0.8,2.3,1.1,3.4c0.3,1.2,0.5,2.5,0.7,3.7c0.2,1.2,0.3,2.5,0.3,3.7c0,1.2,0,2.4,0,3.7
				c0,0.6-0.1,1.2-0.2,1.8c0.2-0.1,0.5-0.1,0.7-0.2l0.1,0l0.3-0.1l0.5-0.1c0,0,0.1-0.1,0.1-0.1c0,0,0-0.1,0-0.1
				c0.2-1.2,0.2-2.5,0.2-3.9c0-1.3-0.1-2.7-0.3-4.1c-0.3-2.8-1-5.4-1.9-7.9c-0.2-0.6-0.5-1.3-0.8-1.9c0-0.1-0.1-0.1-0.1-0.1
				c0,0-0.1,0-0.1,0c-0.6,0-1.3,0-1.9,0C120,63.1,120.4,63.8,120.7,64.6"/>
			<path class="st8" d="M123.9,79.6c-0.2,0-0.4,0.1-0.6,0.1c-0.1,0-0.2,0.1-0.2,0.2c0,0.1,0.1,0.2,0.2,0.2c0.2,0,0.4-0.1,0.6-0.1
				c0,0,0.1,0,0.1-0.1c0,0,0-0.1,0-0.1C124.1,79.7,124.1,79.6,123.9,79.6C124,79.6,123.9,79.6,123.9,79.6"/>
			<path class="st8" d="M123.9,78.4c-0.2,0-0.3,0.1-0.5,0.1c-0.1,0-0.2,0.1-0.2,0.2c0,0.1,0.1,0.2,0.2,0.2c0.2,0,0.3-0.1,0.5-0.1
				c0.1,0,0.2-0.1,0.2-0.2C124.1,78.5,124.1,78.4,123.9,78.4C124,78.4,123.9,78.4,123.9,78.4"/>
			<path class="st8" d="M124,77c-0.2,0-0.4,0.1-0.5,0.1c-0.1,0-0.2,0.1-0.2,0.2c0,0.1,0.1,0.2,0.2,0.2c0.2,0,0.4,0,0.5-0.1
				c0.1,0,0.2-0.1,0.2-0.2C124.2,77,124.1,77,124,77C124,77,124,77,124,77"/>
			<path class="st8" d="M124.1,75.3c-0.2,0.1-0.4,0.1-0.7,0.1c-0.1,0-0.2,0.1-0.2,0.2c0,0.1,0.1,0.2,0.2,0.2c0.2,0,0.4-0.1,0.7-0.1
				c0,0,0.1,0,0.1-0.1c0,0,0-0.1,0-0.1c0,0,0-0.1-0.1-0.1C124.2,75.4,124.1,75.3,124.1,75.3C124.1,75.3,124.1,75.3,124.1,75.3"/>
			<path class="st8" d="M123.9,74.1c-0.2,0-0.3,0-0.5,0c-0.1,0-0.2,0.1-0.2,0.2c0,0,0,0.1,0.1,0.1c0,0,0.1,0,0.1,0
				c0.2,0,0.3,0,0.5,0c0.1,0,0.2-0.1,0.2-0.2C124.1,74.1,124,74.1,123.9,74.1C123.9,74.1,123.9,74.1,123.9,74.1"/>
			<path class="st8" d="M123.6,72.3c-0.2,0-0.3,0-0.5,0.1c-0.1,0-0.2,0.1-0.2,0.2c0,0.1,0.1,0.2,0.2,0.2c0.2,0,0.3,0,0.5-0.1
				c0.1,0,0.2-0.1,0.2-0.2C123.8,72.3,123.8,72.3,123.6,72.3C123.7,72.3,123.6,72.3,123.6,72.3"/>
			<path class="st8" d="M123.5,70.9c-0.2,0-0.3,0-0.5,0.1c-0.1,0-0.2,0.1-0.2,0.2c0,0,0,0.1,0.1,0.1c0,0,0.1,0,0.1,0
				c0.2,0,0.3,0,0.5-0.1c0.1,0,0.2-0.1,0.2-0.2C123.7,71,123.6,70.9,123.5,70.9C123.5,70.9,123.5,70.9,123.5,70.9"/>
			<path class="st8" d="M123.3,69.3c-0.2,0-0.4,0.1-0.6,0.1c-0.1,0-0.2,0.1-0.2,0.2c0,0.1,0.1,0.2,0.2,0.2c0.2,0,0.4,0,0.6-0.1
				c0.1,0,0.2-0.1,0.2-0.2C123.5,69.3,123.4,69.2,123.3,69.3C123.3,69.2,123.3,69.2,123.3,69.3"/>
			<path class="st8" d="M123,67.6c-0.2,0-0.4,0-0.6,0.1c-0.1,0-0.2,0.1-0.2,0.2c0,0.1,0.1,0.2,0.2,0.2c0.2,0,0.4,0,0.6-0.1
				c0.1,0,0.2-0.1,0.2-0.2C123.1,67.7,123.1,67.6,123,67.6C123,67.6,123,67.6,123,67.6"/>
			<path class="st8" d="M122.5,65.8c-0.2,0.1-0.5,0.1-0.7,0.1c-0.1,0-0.2,0.1-0.2,0.2c0,0,0,0.1,0.1,0.1c0,0,0.1,0,0.1,0
				c0.2,0,0.5-0.1,0.7-0.1c0,0,0.1,0,0.1-0.1c0,0,0-0.1,0-0.1c0,0,0-0.1-0.1-0.1C122.6,65.8,122.6,65.8,122.5,65.8
				C122.5,65.8,122.5,65.8,122.5,65.8"/>
			<path class="st8" d="M121.8,64.4c-0.2,0-0.4,0-0.6,0c0,0-0.1,0-0.1,0.1c0,0,0,0.1,0,0.1c0,0,0,0.1,0.1,0.1c0,0,0.1,0,0.1,0
				c0.2,0,0.4,0,0.6,0c0.1,0,0.2-0.1,0.2-0.2C122,64.5,121.9,64.4,121.8,64.4C121.8,64.4,121.8,64.4,121.8,64.4"/>
			<path class="st8" d="M120.7,63.3c0,0.1,0.1,0.2,0.2,0.2c0.2,0,0.4,0,0.6,0c0.1,0,0.1,0,0.1,0c0,0,0.1-0.1,0.1-0.1
				c0,0,0-0.1,0-0.1c0,0-0.1-0.1-0.1-0.1c-0.2,0-0.4,0-0.6,0c0,0,0,0,0,0C120.8,63.2,120.7,63.2,120.7,63.3"/>
			<path class="st1" d="M114.8,62.5L114.8,62.5c-3.6,0.1-7.1,0.4-10.7,0.7c-2.2,0.2-4.4,0.5-6.6,0.8c-1.1,0.2-2.1,0.3-3.3,0.5
				c-0.1,0-0.2,0-0.3,0.1l-0.2,0c-0.3,0.1-0.7,0.1-1,0.2c-0.5,0.1-1,0.1-1.5,0.2l-0.3,0c-0.9,0.1-1.8,0.2-2.7,0.4
				c-1.2,0.2-2.1,0.5-2.8,0.8c-0.2,0.1-0.4,0.2-0.7,0.3c-0.2,0.1-0.4,0.2-0.6,0.3c-0.4,0.2-0.7,0.5-1,0.8c-0.4,0.4-0.8,0.8-1.1,1.2
				c-0.2,0.3-0.5,0.5-0.7,0.8c0,0-0.1,0.1-0.1,0.1c0,0,0,0.1,0,0.1c0.2,0.4,0.5,0.8,0.7,1.2l0,0c0.4,1,0.7,2.1,0.9,3.3c0,0,0,0,0,0
				c0.2,1.4,0.2,2.8,0,4.1c-0.1,0.6-0.2,1.1-0.4,1.6c0,0-0.1,0-0.1,0.1c-0.1,0.1,0,0.2,0,0.3c0.3,0.2,0.5,0.4,0.8,0.6
				c0.4,0.3,0.9,0.7,1.3,1c0.4,0.3,0.8,0.5,1.2,0.7c0.2,0.1,0.4,0.2,0.6,0.2c0.2,0.1,0.4,0.1,0.7,0.2c1.1,0.2,2.1,0.3,2.9,0.3
				c0.2,0,0.3,0,0.5,0c0.8,0,1.5,0,2.3-0.1l0.3,0c0.5,0,1,0,1.5,0c0.2,0,0.4,0,0.5,0c0.2,0,0.3,0,0.5,0h0.2H96h0.2
				c1.1,0,2.2,0,3.3,0c2.2-0.1,4.4-0.2,6.6-0.3c3.5-0.2,7.1-0.6,10.7-1.1c0.1,0,0.1,0,0.1-0.1c0.1,0,0.2-0.1,0.2-0.1
				c0.2-0.7,0.3-1.5,0.5-2.3c0.1-0.8,0.2-1.6,0.2-2.4c0.1-1.5,0-3.1-0.2-4.8c-0.1-0.7-0.2-1.5-0.3-2.4c0-0.3-0.1-0.6-0.1-0.9
				c-0.1-0.3-0.1-0.7-0.2-1c-0.2-1.2-0.4-2.6-1-3.8c-0.3-0.6-0.6-1.2-0.9-1.7c0,0-0.1-0.1-0.1-0.1c0,0,0,0,0,0
				C114.9,62.5,114.8,62.5,114.8,62.5"/>
			<path class="st1" d="M82.9,80.3c0,0-0.1,0-0.1,0.1c0,0,0,0.1,0,0.1c0,0.1,0,0.1,0.1,0.1c0.7,0.6,1.4,1.2,2.1,1.7
				c0.4,0.3,0.8,0.5,1.2,0.7c0.2,0.1,0.4,0.2,0.6,0.2c0.2,0.1,0.5,0.1,0.7,0.2c2,0.5,4,0.5,6,0.5c1,0,2-0.1,3-0.1
				c1.1-0.1,2.1-0.1,3.2-0.2c2.2-0.1,4.4-0.3,6.6-0.5c3.4-0.3,6.9-0.7,10.3-1.1c0.1,0,0.2-0.1,0.1-0.2c0,0,0-0.1-0.1-0.1
				c0,0-0.1,0-0.1,0c-4.4,0.5-8.8,1-13.2,1.4c-0.6,0-1.2,0.1-1.8,0.1c0,0,0,0,0,0c-1.1,0.1-2.2,0.1-3.3,0.2c-1,0-2,0.1-3,0.2
				c-2,0.1-4.1,0.2-6.1-0.1c-0.3,0-0.6-0.1-0.9-0.2h0h0c0,0,0,0,0,0c0,0,0,0,0,0c-0.3-0.1-0.7-0.1-1-0.2c-0.3-0.1-0.7-0.2-1-0.4
				c-1.2-0.6-2.1-1.5-3.1-2.3C83,80.3,83,80.3,82.9,80.3C83,80.3,82.9,80.3,82.9,80.3 M86.2,82.7C86.2,82.7,86.2,82.7,86.2,82.7
				C86.2,82.7,86.2,82.7,86.2,82.7 M88.1,83.3C88.1,83.3,88.1,83.3,88.1,83.3C88.1,83.3,88.1,83.3,88.1,83.3"/>
			<path class="st1" d="M102.5,82.8c-1.4,0.2-2.7,0.3-4.1,0.4c0,0,0,0,0,0c-0.7,0-1.5,0-2.2,0.1c-0.7,0-1.3,0.1-2,0.1H94
				c0,0-0.1,0-0.1,0c-0.3,0-0.7,0-1,0c-0.4,0-0.7,0-1.1,0c-0.3,0-0.6,0-0.9-0.1c-0.1,0-0.2,0.1-0.2,0.2c0,0.1,0.1,0.2,0.2,0.2
				c0.1,0,0.2,0,0.3,0c0,0,0.1,0,0.1,0c0.3,0,0.7,0,1,0c0.8,0,1.7,0.1,2.5,0c1.1,0,2.3-0.1,3.4-0.3c1.4-0.1,2.9-0.3,4.3-0.5
				c0.1,0,0.2-0.1,0.1-0.2C102.7,82.8,102.6,82.8,102.5,82.8C102.5,82.8,102.5,82.8,102.5,82.8"/>
			<path class="st1" d="M101.5,63.3c-2.1,0.2-4.3,0.5-6.4,0.8c-2.1,0.3-4.2,0.6-6.3,1c-0.5,0.1-1,0.2-1.5,0.4
				c-0.4,0.1-0.8,0.2-1.2,0.4c-0.7,0.3-1.4,0.7-2.1,1.2c-1.3,1-2.3,2.2-3.2,3.6c0,0.1-0.1,0.1-0.1,0.2c-0.1,0.1,0,0.2,0,0.3
				c0.1,0.1,0.2,0,0.3,0c0.6-0.8,1.1-1.6,1.8-2.4c0.6-0.6,1.2-1.2,2-1.7c0,0,0,0,0,0c0.7-0.4,1.4-0.8,2.2-1c0.5-0.1,0.9-0.3,1.4-0.4
				c0.5-0.1,1-0.2,1.5-0.3c1-0.2,2.1-0.4,3.1-0.5c1-0.1,2.1-0.3,3.1-0.4c1.1-0.1,2.1-0.3,3.2-0.4c3.3-0.4,6.7-0.8,10-0.9l0,0
				c1.7-0.1,3.5-0.1,5.2,0c0.1,0,0.2-0.1,0.2-0.2c0-0.1-0.1-0.2-0.2-0.2c-0.7,0-1.4,0-2.1,0C108.7,62.6,105.1,62.9,101.5,63.3"/>
			<path class="st4" d="M84.6,66.6c-0.1,0.1-0.3,0.2-0.4,0.2c-0.2,0.1-0.3,0.2-0.5,0.4c-0.8,0.6-1.5,1.4-2.3,2.4l-0.1,0.1
				c0,0,0,0.1,0,0.1c-0.2,0.3-0.4,0.5-0.6,0.9l-0.1,0.1l-0.1,0.1c-0.1,0.1,0,0.2,0,0.3c0,0,0.1,0,0.1,0c0.1,0,0.1,0,0.2-0.1
				c0.2-0.3,0.4-0.6,0.6-0.8c0.2,0.3,0.3,0.6,0.5,1c0.4,1,0.7,2.1,0.9,3.3l0,0c0.2,1.4,0.2,2.8,0,4.1c-0.1,0.6-0.2,1.1-0.4,1.6
				c0,0-0.1,0-0.1,0.1c-0.1,0.1,0,0.2,0,0.3c0.3,0.2,0.5,0.4,0.8,0.6l0,0l0,0c0.4,0.3,0.8,0.7,1.3,1c0.4,0.3,0.8,0.5,1.2,0.7
				c0.1,0.1,0.3,0.1,0.5,0.2c0.2,0.1,0.3,0.1,0.5,0.2c0.2,0.1,0.4,0.1,0.6,0.2c0.1-0.1,0.1-0.2,0.2-0.3c0.2-0.3,0.3-0.5,0.5-0.8
				c0.1-0.3,0.3-0.6,0.4-0.9c0,0,0,0,0,0c0,0,0,0,0,0c0,0,0,0,0,0c0,0,0,0,0,0c0.2-0.5,0.4-1,0.5-1.5c0.1-0.3,0.1-0.6,0.2-1
				c0,0,0,0,0,0c0.1-0.7,0.1-1.5,0.1-2.2c0-0.8-0.1-1.6-0.2-2.4c0,0,0,0,0,0c-0.2-1.5-0.6-2.9-1.1-4.3l0,0c-0.4-0.9-0.8-1.7-1.4-2.4
				l0,0l0,0c0,0,0,0,0,0l0,0c0,0,0,0,0,0c0,0,0,0,0,0c0,0,0,0,0,0c0,0,0,0,0,0l0,0c-0.2-0.2-0.4-0.5-0.6-0.7
				c-0.2-0.2-0.4-0.4-0.7-0.6c0,0,0,0,0,0c-0.1,0-0.1-0.1-0.2-0.1C85,66.4,84.8,66.5,84.6,66.6 M85.3,66.5
				C85.3,66.5,85.3,66.5,85.3,66.5C85.3,66.5,85.3,66.5,85.3,66.5"/>
			<path class="st6" d="M116.1,79.5c-0.6,0.1-1.3,0.2-1.9,0.3c-0.7,0.1-1.3,0.2-2,0.3c-1.4,0.2-2.8,0.4-4.2,0.6
				c-2.8,0.4-5.6,0.6-8.4,0.7c-0.6,0-1.3,0-1.9,0c-0.6,0-1.2,0-1.8,0c-1.2,0-2.5,0-3.7,0c-1.2-0.1-2.4-0.2-3.6-0.4l0,0l0,0
				c0,0.1-0.1,0.3-0.2,0.4c-0.1,0.3-0.3,0.6-0.4,0.9c-0.1,0.2-0.3,0.5-0.5,0.8l0,0l0,0l-0.1,0.1l0,0l0,0l-0.1,0.1l0,0l0,0
				c1.4,0.3,3,0.5,4.9,0.5c0.4,0,0.7,0,1.1,0c0.9,0,1.8-0.1,2.7-0.1h0l0.3,0c0.4,0,0.9,0,1.3-0.1c0.6,0,1.2-0.1,1.8-0.1
				c2-0.1,4.2-0.3,6.6-0.5l0.6-0.1c3.3-0.2,6.5-0.6,9.8-1c0.1,0,0.1,0,0.1-0.1h0c0.1,0,0.2-0.1,0.2-0.1c0.2-0.7,0.3-1.5,0.5-2.3
				c0-0.1,0-0.2,0-0.3C117,79.4,116.6,79.4,116.1,79.5"/>
			<path class="st9" d="M81.8,69.2L81.8,69.2L81.8,69.2c-0.1,0.1-0.2,0.3-0.3,0.4l-0.1,0.1c0,0,0,0.1-0.1,0.1
				c-0.2,0.3-0.4,0.5-0.6,0.9l-0.1,0.1l-0.1,0.1c-0.1,0.1,0,0.2,0,0.3c0,0,0.1,0,0.1,0c0.1,0,0.1,0,0.2-0.1c0.2-0.3,0.4-0.6,0.6-0.8
				c0.2,0.4,0.3,0.7,0.5,1c0.4,1,0.7,2.1,0.9,3.3l0,0c0.2,1.4,0.2,2.8,0,4.1c-0.1,0.6-0.2,1.1-0.4,1.6c0,0-0.1,0-0.1,0.1
				c-0.1,0.1,0,0.2,0,0.3c0.3,0.2,0.5,0.4,0.7,0.6l0,0l0,0l0,0c0.4,0.3,0.8,0.7,1.3,1c0.4,0.3,0.8,0.5,1.2,0.7
				c0.1,0.1,0.3,0.1,0.5,0.2c0.2,0.1,0.3,0.1,0.5,0.2c0.2,0.1,0.4,0.1,0.6,0.2l0.1-0.1l0,0l0,0l0.1-0.1l0,0l0,0
				c0.2-0.3,0.4-0.6,0.5-0.8c0.2-0.3,0.3-0.6,0.4-0.9c0.1-0.1,0.1-0.3,0.2-0.4l-0.1,0l-0.1,0c-0.7-0.1-1.3-0.2-1.8-0.4
				c-0.3-0.1-0.6-0.2-0.9-0.2c-0.3-0.1-0.5-0.2-0.8-0.3l0-0.2l0-0.1l0,0c0-0.1,0.1-0.3,0.1-0.5c0.1-0.3,0.1-0.6,0.1-0.9
				c0-0.2,0-0.4,0-0.6c0-0.4,0-0.9,0-1.3c-0.1-1.2-0.4-2.4-0.8-3.5c-0.3-0.8-0.7-1.6-1.1-2.2c-0.2-0.2-0.3-0.5-0.5-0.6
				c-0.2-0.2-0.4-0.4-0.6-0.6c-0.2-0.1-0.3-0.2-0.5-0.3C81.9,69.3,81.8,69.3,81.8,69.2C81.8,69.2,81.8,69.2,81.8,69.2"/>
			<path class="st4" d="M91.1,67.6c0.3,0.5,0.6,1.1,0.8,1.7c0.5,1.3,0.9,2.7,1.2,4c0.1,0.7,0.2,1.4,0.3,2.1c0,0.4,0.1,0.8,0.1,1.2
				c6-0.8,11.9-1.5,17.9-2.3c-0.4-3-0.8-6.1-1.2-9.1C103.7,66,97.4,66.8,91.1,67.6"/>
			<path class="st8" d="M80.6,69.1c-1.6,0.2-2.6,3.3-2.2,6.8c0.4,3.6,2.1,6.3,3.7,6.1c1.6-0.2,2.6-3.3,2.2-6.8
				C83.9,71.6,82.2,68.9,80.6,69.1"/>
			<path class="st8" d="M78.1,69.4c-1.6,0.2-2.6,3.3-2.2,6.8c0.4,3.6,2.1,6.3,3.7,6.1c1.6-0.2,2.6-3.3,2.2-6.8
				C81.4,72,79.8,69.3,78.1,69.4"/>
			<path class="st7" d="M79.6,69.9C79.6,69.9,79.6,69.9,79.6,69.9c-0.1,0.1-0.1,0.1-0.1,0.2c0.1,0.1,0.2,0.3,0.3,0.4
				c0.3,0.4,0.6,0.8,0.8,1.4c0.2,0.4,0.3,0.9,0.5,1.4c0.1,0.5,0.2,1,0.3,1.5c0.1,0.7,0.1,1.4,0.1,2.1c0,0.7,0,1.4-0.1,2l0-0.1
				c-0.1,0.4-0.1,0.7-0.2,0.9c0,0.1-0.1,0.3-0.1,0.5c0,0.1-0.1,0.2-0.1,0.3l0,0.1L81,80.7l0,0c0,0,0,0.1,0,0.1c0,0,0,0.1,0,0.1
				c0,0.1,0,0.1,0,0.2c0,0.1,0.1,0.1,0.1,0.1c0,0,0,0,0.1,0c0,0,0.1,0,0.1,0c0.1,0,0.1-0.1,0.1-0.1l0,0c0-0.1,0.1-0.1,0.1-0.2
				c0-0.1,0.1-0.2,0.1-0.3c0.1-0.2,0.1-0.3,0.2-0.5c0.1-0.2,0.1-0.4,0.2-0.6C82,79,82,78.5,82.1,78c0.1-1.1,0-2.2-0.2-3.3
				c-0.1-0.5-0.2-0.9-0.3-1.4c-0.1-0.4-0.3-0.8-0.5-1.3C80.7,71.2,80.2,70.5,79.6,69.9C79.7,69.9,79.6,69.9,79.6,69.9"/>
			<path class="st3" d="M71.2,68.8L71.2,68.8L71.2,68.8c-2.5,0-4.8,0.9-6.5,2.6c-0.3,0.3-0.5,0.6-0.7,0.9c-0.2,0.3-0.4,0.7-0.6,1
				l-0.1,0.2c-0.3,0.6-0.6,1.2-1,1.7c-0.2,0.2-0.4,0.4-0.6,0.6c-0.2,0.1-0.4,0.2-0.6,0.3c-0.3,0.1-0.6,0.2-0.9,0.2
				c-0.1,0-0.2,0-0.3,0c-0.2,0-0.4,0-0.5,0c-0.3,0-0.5-0.1-0.7-0.2c-0.2-0.1-0.4-0.2-0.5-0.3c-0.1-0.1-0.2-0.2-0.4-0.4
				c-0.1-0.1-0.2-0.3-0.2-0.4c-0.1-0.1-0.1-0.3-0.1-0.4c0-0.1-0.1-0.1-0.2-0.1c0,0,0,0,0,0c-0.1,0-0.1,0-0.1,0.1c0,0,0,0,0,0
				c-0.3,0.1-0.5,0.3-0.7,0.5c-0.2,0.2-0.4,0.4-0.5,0.6c-0.3,0.4-0.4,1-0.5,1.6c0,0.3,0,0.5,0,0.8c0,0.2,0.1,0.5,0.2,0.8
				c0.2,0.5,0.3,0.9,0.6,1.4c0.4,0.8,1,1.5,1.7,2.1c0.7,0.6,1.5,1.1,2.3,1.4c0.8,0.3,1.7,0.6,2.7,0.7c0.6,0.1,1.2,0.1,1.8,0.1
				c0.3,0,0.7,0,1,0c0.9-0.1,1.9-0.2,2.8-0.5c0.9-0.3,1.7-0.6,2.5-1.1c0.2-0.1,0.4-0.2,0.5-0.4l0.2-0.1c0.4-0.2,0.7-0.4,0.9-0.6
				c0.7-0.4,1.3-0.7,1.9-0.9c0.3-0.1,0.6-0.2,1-0.3c0.2-0.1,0.5-0.1,0.7-0.1l0.2,0c0.5-0.1,0.9-0.2,1.4-0.3c0.4-0.2,0.8-0.3,1.1-0.6
				c0.3-0.3,0.5-0.6,0.7-1.1c0.1-0.2,0.1-0.5,0.2-0.8c0-0.3,0.1-0.6,0.1-0.9c0-0.6-0.1-1.2-0.3-1.8c-0.3-1.2-0.9-2.3-1.8-3.3
				c-0.4-0.5-0.8-0.9-1.4-1.3c-0.5-0.4-1-0.7-1.6-0.9C73.6,69.1,72.4,68.8,71.2,68.8"/>
			<path class="st5" d="M73.2,70.5c-0.3,0-0.6,0.1-0.8,0.1c-0.3,0.1-0.5,0.1-0.8,0.2c0,0,0,0,0,0c-0.2,0.1-0.5,0.2-0.7,0.3
				c-0.2,0.1-0.4,0.2-0.7,0.4l0,0c0,0,0,0,0,0h0l0,0c-0.2,0.1-0.4,0.3-0.6,0.5c-0.2,0.2-0.4,0.4-0.5,0.5v0c-0.2,0.2-0.4,0.5-0.6,0.8
				c-0.2,0.3-0.3,0.5-0.4,0.8c0,0,0,0,0,0c-0.4,0.8-0.7,1.7-1.1,2.6c-0.1,0.2-0.2,0.5-0.3,0.7c-0.1,0.2-0.2,0.4-0.3,0.6
				c-0.2,0.4-0.4,0.7-0.7,1.1c-0.3,0.4-0.7,0.8-1.1,1.1c-0.4,0.3-0.9,0.6-1.3,0.8c-0.5,0.2-1,0.4-1.5,0.5c-0.6,0.1-1.1,0.1-1.7,0.1
				c-0.3,0-0.5,0-0.8,0c-0.3,0-0.5-0.1-0.8-0.1C58,81.3,57.5,81.2,57,81c-0.2-0.1-0.5-0.2-0.7-0.4l-0.1,0c0.4,0.7,0.9,1.3,1.5,1.8
				c0.1,0.1,0.2,0.2,0.3,0.3c0.4,0.2,0.7,0.3,1.1,0.5c0.4,0.2,0.7,0.3,1.1,0.4c0.4,0.1,0.8,0.2,1.1,0.3c0,0,0,0,0,0
				c0.3,0.1,0.7,0.1,1,0.1c0.3,0,0.7,0,1,0l0,0l0,0h0c0,0,0,0,0,0h0c0.4,0,0.7-0.1,1.1-0.1c0.3-0.1,0.6-0.1,0.9-0.2c0,0,0,0,0,0
				c0.3-0.1,0.6-0.2,0.9-0.4c0.3-0.1,0.6-0.3,0.8-0.5c0,0,0,0,0,0c0.3-0.2,0.6-0.4,0.8-0.6c0.2-0.2,0.5-0.5,0.7-0.7c0,0,0,0,0,0
				c0.2-0.3,0.5-0.6,0.7-0.9c0.2-0.3,0.4-0.6,0.6-1c0,0,0,0,0,0c0.1-0.2,0.2-0.5,0.3-0.7c0-0.1,0.1-0.2,0.1-0.4
				c0-0.1,0.1-0.2,0.1-0.4c0.2-0.5,0.3-1,0.5-1.4c0.3-0.8,0.7-1.7,1.2-2.4c0.2-0.2,0.3-0.4,0.5-0.6c0.2-0.2,0.4-0.4,0.6-0.5
				c0.2-0.2,0.5-0.3,0.8-0.5c0.2-0.1,0.3-0.2,0.5-0.2c0.2-0.1,0.3-0.1,0.5-0.2c0.6-0.2,1.3-0.3,2-0.3c0,0,0.1,0,0.1,0
				c0.2,0,0.4,0,0.6,0c-0.1-0.1-0.1-0.1-0.2-0.2c-0.1-0.1-0.2-0.2-0.3-0.3c-0.4-0.2-0.7-0.3-1.1-0.5c-0.2-0.1-0.4-0.1-0.6-0.2
				c-0.2-0.1-0.4-0.1-0.6-0.1c0,0,0,0,0,0c-0.3-0.1-0.6-0.1-1-0.1c-0.2,0-0.3,0-0.5,0C73.5,70.5,73.3,70.5,73.2,70.5 M69,72.5
				C69,72.5,69,72.5,69,72.5C69,72.5,69,72.5,69,72.5 M63.4,84C63.4,84,63.4,84,63.4,84L63.4,84C63.4,84,63.4,84,63.4,84"/>
			<path class="st5" d="M70.2,71.5L70.2,71.5C70.2,71.5,70.2,71.5,70.2,71.5C70.2,71.5,70.2,71.5,70.2,71.5"/>
			<path class="st10" d="M78.3,74.6L78.3,74.6C78.3,74.6,78.3,74.6,78.3,74.6C78.3,74.6,78.3,74.6,78.3,74.6L78.3,74.6L78.3,74.6
				L78.3,74.6c-0.4,0.1-0.8,0.3-1.2,0.4c-0.4,0.2-0.8,0.4-1.2,0.6l0,0c-0.3,0.2-0.7,0.4-1,0.6c-0.3,0.2-0.6,0.5-0.9,0.7
				c-0.1,0.1-0.2,0.2-0.3,0.3c-0.1,0.1-0.2,0.2-0.3,0.4c-0.2,0.3-0.4,0.5-0.7,0.8c-0.4,0.5-0.8,1-1.3,1.5c-0.6,0.6-1.2,1.2-1.9,1.7
				c-0.3,0.2-0.7,0.4-1,0.6c-0.2,0.1-0.5,0.2-0.7,0.2c-0.2,0.1-0.5,0.1-0.7,0.2c0,0,0,0,0,0c0,0,0,0,0,0l-0.1,0l-0.1,0
				c-0.3,0.2-0.5,0.3-0.8,0.5c-0.3,0.1-0.6,0.3-0.9,0.4c-0.2,0.1-0.4,0.1-0.6,0.2c-0.1,0-0.2,0-0.2,0.1l-0.1,0
				c-0.3,0.1-0.6,0.1-0.9,0.1l-0.1,0c-0.2,0-0.3,0-0.5,0h-0.1c-0.2,0-0.3,0-0.5,0c-0.3,0-0.7-0.1-1-0.1c-0.4-0.1-0.7-0.2-1.1-0.3
				c-0.3-0.1-0.7-0.2-1.1-0.4c-0.3-0.1-0.6-0.3-1-0.5c0.6,0.4,1.2,0.8,1.9,1.1c0.8,0.3,1.7,0.6,2.7,0.7c0.6,0.1,1.2,0.1,1.8,0.1
				c0.3,0,0.7,0,1,0c1-0.1,1.9-0.2,2.8-0.5c0.9-0.3,1.7-0.6,2.5-1.1c0.2-0.1,0.4-0.2,0.5-0.4l0.2-0.1c0.4-0.2,0.7-0.4,0.9-0.6
				c0.7-0.4,1.3-0.7,1.9-0.9c0.3-0.1,0.6-0.2,1-0.3c0.2-0.1,0.5-0.1,0.7-0.1l0.2,0c0.5-0.1,0.9-0.2,1.4-0.3c0.4-0.2,0.8-0.3,1.1-0.6
				c0.3-0.3,0.5-0.6,0.7-1.1c0.1-0.2,0.1-0.5,0.2-0.8c0-0.3,0.1-0.6,0.1-0.9c0-0.6-0.1-1.2-0.3-1.8c-0.1-0.2-0.1-0.4-0.2-0.6
				C78.9,74.4,78.6,74.5,78.3,74.6"/>
			<path class="st10" d="M56,80.2c0.1,0.1,0.1,0.2,0.2,0.4l0,0l0,0l0,0l0,0c0.2,0.1,0.4,0.2,0.7,0.4c0.2,0.1,0.3,0.1,0.6,0.2
				c-0.4-0.2-0.7-0.5-1.1-0.8c-0.3-0.2-0.5-0.5-0.8-0.8C55.8,79.8,55.9,80,56,80.2"/>
			<path class="st5" d="M68.6,70.6c-0.4-0.5-1.5-0.2-2.6,0.6c-1.1,0.8-1.6,1.9-1.2,2.4c0.4,0.5,1.5,0.2,2.6-0.6
				C68.5,72.2,69,71.1,68.6,70.6"/>
			<path class="st5" d="M64.6,74.1c-0.2-0.2-0.6-0.1-0.9,0.2c-0.2,0.3-0.3,0.7,0,0.9c0.2,0.2,0.6,0.1,0.9-0.2
				C64.9,74.7,64.9,74.3,64.6,74.1"/>
			<path class="st7" d="M77.3,71.2C77.2,71.2,77.2,71.2,77.3,71.2c-0.1,0.1-0.1,0.1,0,0.1c0.2,0.2,0.4,0.4,0.5,0.6
				c0.4,0.5,0.7,1,1,1.7c0,0,0,0,0,0c0.3,0.7,0.5,1.5,0.6,2.3c0.1,0.6,0.1,1.2,0,1.8c-0.1,0.4-0.2,0.8-0.3,1.1
				c-0.1,0.2-0.3,0.5-0.4,0.7l-0.1,0.1c0,0.1-0.1,0.1,0,0.2c0,0.1,0.1,0.2,0.1,0.2c0,0,0.1,0,0.2,0c0,0,0.1,0,0.1,0
				c0.1,0,0.1-0.1,0.2-0.1c0.1-0.1,0.2-0.3,0.3-0.5c0.1-0.2,0.2-0.3,0.2-0.5c0.1-0.2,0.2-0.5,0.2-0.8c0.1-0.5,0.1-1.1,0.1-1.7
				c-0.1-1.1-0.5-2.3-1.1-3.4c-0.2-0.4-0.4-0.7-0.7-1C77.8,71.8,77.6,71.5,77.3,71.2C77.3,71.2,77.3,71.2,77.3,71.2"/>
		</g>
		<path class="st11" d="M173.6,4.4C173.6,4.4,173.7,4.4,173.6,4.4C173.7,4.4,173.7,4.4,173.6,4.4c0.1-0.1,0.1-0.1,0.1-0.1
			C173.7,4.4,173.7,4.4,173.6,4.4"/>
		<g>
			<path class="st11" d="M167.2,0c-0.1,0-0.3,0-0.5,0.1c-0.1,0.1-0.3,0.1-0.5,0.3c-0.1,0.1-0.3,0.2-0.5,0.4
				c-0.3,0.3-0.6,0.8-0.8,1.3c-0.1,0.3-0.2,0.5-0.3,0.9c-0.1,0.3-0.2,0.6-0.3,1c-0.3,1.3-0.4,2.7-0.4,4.2c0,0.6,0.1,1.1,0.1,1.7
				c0.7-0.8,1.4-1.7,2-2.6c0,0,0,0,0,0c0.4-0.6,0.7-1.2,1-1.8c0.3-0.6,0.6-1.2,0.8-1.9v0c0.1-0.4,0.2-0.7,0.3-1.1
				c0-0.2,0.1-0.4,0.1-0.7c0-0.1,0-0.1,0-0.2c0-0.4,0-0.7-0.1-0.9c-0.1-0.2-0.1-0.3-0.2-0.4c-0.1-0.1-0.2-0.2-0.4-0.3
				C167.5,0,167.4,0,167.2,0C167.3,0,167.2,0,167.2,0"/>
			<path class="st11" d="M174.3,0.1c-0.3,0.1-0.7,0.3-1,0.5c-0.3,0.2-0.6,0.5-1,0.9c-0.3,0.3-0.6,0.7-0.9,1.1
				c-0.2,0.4-0.5,0.8-0.8,1.2c-0.2,0.4-0.5,0.8-0.7,1.3c-0.2,0.4-0.4,0.8-0.6,1.2l-0.1,0.3c-0.1,0.1-0.1,0.2-0.2,0.3
				c0,0.1-0.1,0.2-0.1,0.2c0,0.1-0.1,0.1-0.1,0.2c0.4-0.3,0.9-0.6,1.3-0.8c0.6-0.4,1.1-0.7,1.7-1.1c0.6-0.4,1.1-0.7,1.7-1.1
				c0.5-0.4,1.1-0.8,1.5-1.3c0.2-0.2,0.4-0.4,0.6-0.6c0.2-0.3,0.4-0.5,0.5-0.7c0.2-0.3,0.3-0.5,0.3-0.8c0-0.2-0.1-0.5-0.2-0.6
				c-0.2-0.2-0.6-0.3-0.8-0.4c-0.1,0-0.3,0-0.4,0C174.7,0,174.5,0,174.3,0.1 M175,3.1L175,3.1L175,3.1z"/>
			<path class="st11" d="M175.8,7.5c-0.3,0-0.7,0.1-1.1,0.3c-0.4,0.2-0.7,0.4-1.1,0.7c-0.4,0.2-0.7,0.5-1.1,0.9
				c-0.3,0.3-0.7,0.6-1,1c-0.5,0.5-1.1,1.1-1.6,1.7l-0.1,0.1c0.7-0.1,1.4-0.4,2.1-0.6c0,0,0,0,0,0c0.4-0.1,0.8-0.3,1.2-0.4
				c0.2-0.1,0.4-0.1,0.6-0.2c0.2-0.1,0.4-0.1,0.5-0.2c0.4-0.1,0.8-0.3,1.1-0.5c0.4-0.2,0.7-0.4,1-0.6l0,0c0,0,0,0,0,0l0,0
				c0.1-0.1,0.3-0.2,0.4-0.3c0.2-0.2,0.3-0.3,0.4-0.4c0.1-0.2,0.2-0.4,0.1-0.6c-0.1-0.2-0.2-0.4-0.5-0.6c-0.2-0.1-0.5-0.2-0.9-0.2
				C175.9,7.5,175.9,7.5,175.8,7.5"/>
		</g>
		<path class="st11" d="M171.8,11.8C171.8,11.8,171.9,11.8,171.8,11.8l0.2-0.1C171.9,11.7,171.9,11.8,171.8,11.8"/>
		<path class="st11" d="M170.4,12.3c-0.1,0-0.2,0.1-0.3,0.1C170.2,12.4,170.3,12.4,170.4,12.3c0.1,0,0.1,0,0.2,0
			C170.5,12.3,170.4,12.3,170.4,12.3"/>
		<g>
			<path class="st12" d="M83,18.6c0,0-0.1,0-0.1,0c-0.1,0-0.1,0.1-0.1,0.1c0,0.1,0,0.1,0,0.2c0,0,0.1,0.1,0.1,0.1
				c0.5,0.1,1.1,0.2,1.6,0.5c0.7,0.3,1.4,0.7,2.1,1.3c0.7,0.5,1.3,1.1,1.8,1.8c0.2,0.3,0.4,0.6,0.6,0.9c0,0.1,0.1,0.2,0.1,0.2
				c-0.7,0.2-1.4,0.5-1.9,0.9c-0.2,0.2-0.4,0.4-0.6,0.6c-0.2,0.2-0.3,0.4-0.4,0.5c-0.2,0.3-0.3,0.6-0.4,1c-0.1,0.4-0.1,0.8-0.1,1.2
				c0,0.4,0.1,0.8,0.2,1.1c0.1,0.4,0.3,0.7,0.5,0.9c0.2,0.2,0.5,0.4,0.9,0.5c0.1,0,0.3,0,0.4,0c0.2,0,0.5,0,0.8-0.1
				c0.4-0.1,0.8-0.4,1.1-0.7c0.5-0.5,0.8-1.3,0.8-2.4c0-0.4,0-0.9-0.1-1.4c-0.1-0.4-0.2-0.9-0.3-1.3c-0.1-0.2-0.1-0.3-0.2-0.5
				c0.3,0,0.5,0,0.8,0c0.3,0,0.6,0,0.9,0.1c0.6,0.1,1.2,0.2,1.7,0.4c0.4,0.2,0.8,0.4,1.2,0.7l0,0l0,0l0,0l0,0l0,0
				c0.3,0.3,0.7,0.6,1,1c0.3,0.4,0.6,0.9,0.8,1.3c0.2,0.5,0.4,1.1,0.5,1.7c0.1,0.6,0.1,1.2,0,1.8l0,0c-0.1,0.6-0.3,1.2-0.5,1.8
				c-0.2,0.5-0.5,1-0.8,1.4c-0.7,0.9-1.7,1.7-2.6,2.5L92.6,37c-0.5,0.4-1,0.8-1.5,1.3c-0.4,0.4-0.8,0.9-1.3,1.5
				c-0.8,1-1.4,2.2-1.8,3.5c-0.4,1.2-0.7,2.4-0.8,3.8c-0.1,1.2,0,2.6,0.3,3.9c0.2,1,0.5,2,0.9,3c0.4,0.9,0.8,1.8,1.4,2.6
				c0.5,0.8,1.1,1.6,1.8,2.3c1.3,1.3,2.8,2.5,4.6,3.6c1.6,1,3.4,1.8,5.5,2.5c1.8,0.6,3.8,1.1,5.9,1.5c1.9,0.4,3.8,0.6,5.9,0.8
				c1.8,0.2,3.5,0.3,5.1,0.4l0.2,0c1.2,0.1,2.4,0.2,3.7,0.3c0.1,0,0.2-0.1,0.2-0.2c0-0.1,0-0.1-0.1-0.2c0,0-0.1-0.1-0.2-0.1
				c-1.2-0.1-2.5-0.2-3.7-0.3l-0.2,0c-1-0.1-2-0.1-3-0.2c-1.6-0.1-3.3-0.3-5-0.5l0,0c-4.2-0.6-7.8-1.5-11-2.9
				c-2.1-0.9-3.9-1.9-5.5-3.1c-1.2-1-2.3-2-3.2-3.2c-0.8-1.1-1.5-2.2-2-3.4c-0.5-1.3-0.9-2.7-1.1-4.1c-0.2-1.3-0.2-2.5,0-3.7
				c0.2-1.2,0.5-2.3,0.9-3.4c0.5-1.1,1-2.1,1.8-3c0.2-0.3,0.4-0.5,0.6-0.7c0.2-0.2,0.4-0.5,0.7-0.7c0.4-0.4,0.9-0.8,1.4-1.2l0.1-0.1
				c1.1-0.9,2-1.7,2.7-2.7c0.6-0.8,0.9-1.7,1.1-2.7c0.2-0.9,0.1-1.9-0.1-2.9c-0.2-0.9-0.6-1.8-1.2-2.5c-0.6-0.8-1.4-1.4-2.2-1.8
				c-0.5-0.2-0.9-0.4-1.5-0.5c-0.5-0.1-1-0.1-1.5-0.1c-0.1,0-0.1,0-0.2,0c-0.3,0-0.5,0-0.8,0.1c0-0.1-0.1-0.1-0.1-0.2
				c-0.2-0.4-0.5-0.8-0.9-1.4c-0.4-0.5-0.8-0.9-1.4-1.4c-0.5-0.4-1-0.8-1.6-1.1c-0.4-0.2-0.8-0.4-1.3-0.6C84,18.9,83.6,18.7,83,18.6
				C83.1,18.7,83,18.6,83,18.6 M88.6,24.6L88.6,24.6L88.6,24.6c0.3-0.1,0.6-0.2,0.9-0.3c0.3,0.7,0.5,1.4,0.6,2.2
				c0.1,0.6,0.1,1.1,0,1.5c0,0.3-0.1,0.6-0.2,0.9c-0.1,0.2-0.2,0.3-0.3,0.5c-0.1,0.1-0.2,0.2-0.3,0.3c-0.1,0.1-0.3,0.2-0.5,0.3
				c-0.2,0.1-0.4,0.1-0.6,0.2c-0.1,0-0.1,0-0.2,0c-0.1,0-0.1,0-0.2,0c-0.1,0-0.2,0-0.3-0.1c-0.1,0-0.2-0.1-0.3-0.2
				c-0.1-0.1-0.2-0.2-0.3-0.3c-0.1-0.1-0.2-0.3-0.3-0.5c-0.1-0.2-0.2-0.5-0.2-0.8c0-0.4,0-0.7,0-1.1c0.1-0.3,0.1-0.6,0.2-0.9
				c0.1-0.2,0.2-0.4,0.3-0.5c0.2-0.3,0.4-0.5,0.7-0.7C88,24.9,88.3,24.7,88.6,24.6"/>
			<path class="st12" d="M163.6,54.6c-0.2,0-0.4,0-0.6,0c-0.8,0-1.5,0.1-2.3,0.3c-1.4,0.2-2.9,0.7-4.4,1.3c-1.3,0.5-2.5,1.2-4.1,2.1
				c-1.2,0.7-2.3,1.4-3.4,2.1c-0.1,0-0.1,0.1-0.1,0.1c0,0.1,0,0.1,0,0.2c0,0.1,0.1,0.1,0.1,0.1c0,0,0.1,0,0.1,0c0,0,0.1,0,0.1,0
				c2.4-1.5,5.1-3.2,8.1-4.4c0.4-0.2,0.8-0.3,1.3-0.5h0c1.6-0.5,3.2-0.8,4.7-0.8c0.2,0,0.3,0,0.5,0c0.9,0,1.7,0.1,2.6,0.3
				c0.8,0.2,1.6,0.5,2.4,0.9l0,0c0.6,0.3,1.2,0.7,1.6,1.1c0.4,0.4,0.8,0.8,1,1.2c0.3,0.4,0.5,0.8,0.6,1.3c0.1,0.5,0.2,0.9,0.2,1.4
				c0,0.5,0,1-0.1,1.5l0,0c-0.1,0.6-0.4,1.2-0.7,1.8c-0.1,0.3-0.3,0.5-0.5,0.8c-0.2,0.2-0.3,0.5-0.4,0.7c-0.3,0.6-0.6,1.1-0.9,1.7
				c-0.3,0.6-0.5,1.2-0.6,1.8c-0.1,0.6-0.2,1.2-0.1,1.8c0,0.3,0.1,0.6,0.2,0.8c0.1,0.3,0.2,0.5,0.4,0.8c0.2,0.2,0.4,0.5,0.7,0.7
				c0.3,0.2,0.5,0.4,0.9,0.6c0.4,0.2,0.9,0.3,1.4,0.3c0.1,0,0.3,0,0.4,0c0.3,0,0.6-0.1,0.9-0.2c0.3-0.1,0.5-0.2,0.8-0.4
				c0.4-0.3,0.9-0.7,1.2-1.2c0.3-0.5,0.6-1,0.8-1.6c0-0.1,0-0.1,0-0.2c0-0.1-0.1-0.1-0.1-0.1c0,0-0.1,0-0.1,0
				c-0.1,0-0.2,0.1-0.2,0.2c-0.1,0.3-0.2,0.6-0.4,0.9c-0.2,0.3-0.4,0.7-0.7,0.9c-0.3,0.3-0.5,0.5-0.8,0.7c-0.3,0.2-0.6,0.3-0.8,0.4
				c-0.3,0.1-0.5,0.1-0.8,0.1h-0.1c-0.2,0-0.4,0-0.7-0.1c-0.2-0.1-0.5-0.1-0.7-0.3c-0.3-0.1-0.5-0.3-0.8-0.5
				c-0.2-0.2-0.4-0.4-0.6-0.7c-0.1-0.2-0.3-0.5-0.4-0.7c-0.1-0.3-0.1-0.6-0.2-0.9c0,0,0,0,0,0.1c0-0.4,0-0.9,0.1-1.4
				c0.2-0.8,0.5-1.5,1-2.4c0.2-0.5,0.5-0.9,0.9-1.5c0.2-0.3,0.4-0.6,0.5-0.9c0.2-0.3,0.3-0.6,0.4-0.9c0.4-1.1,0.6-2.3,0.4-3.4
				c-0.2-1-0.6-2-1.3-2.8c-0.7-0.8-1.6-1.5-2.6-2c-1-0.5-2.2-0.8-3.5-1C164.5,54.6,164.1,54.6,163.6,54.6"/>
			<path class="st13" d="M168.5,49.4c-0.3,0-0.6,0-0.9,0c-0.9,0-1.8,0.1-2.8,0.3c-0.1,0-0.2,0-0.3,0.1c-1.3,0.2-2.6,0.5-3.9,0.9
				c-0.8,0.2-1.6,0.5-2.3,0.8c0,0.1-0.1,0.2-0.1,0.3c-0.1,0.2-0.1,0.4-0.1,0.6c0,0.2,0.2,0.3,0.4,0.4c0.1,0.1,0.3,0.1,0.5,0.1
				c-0.4,0.2-0.8,0.4-1.2,0.6c-0.1,0.1-0.1,0.2-0.1,0.3c0,0.1,0.1,0.1,0.2,0.1c0,0,0.1,0,0.1,0c0.6-0.3,1.2-0.7,1.9-1l0,0
				c0.9-0.4,1.9-0.7,2.9-1c1-0.3,2-0.5,3.1-0.6c0.9-0.1,1.7-0.2,2.5-0.2c0.6,0,1.3,0,1.8,0.1c0.3,0,0.6,0.1,0.9,0.2
				c0.4,0.1,0.7,0.2,0.9,0.3c0.3,0.1,0.5,0.3,0.7,0.4c0.2,0.1,0.3,0.3,0.4,0.4c0.1,0.1,0.2,0.3,0.3,0.5c0.1,0.2,0.1,0.3,0.1,0.5l0,0
				c0,0.2,0,0.4,0,0.6c0,0.2-0.1,0.4-0.2,0.7c-0.1,0.3-0.3,0.5-0.5,0.8c-0.2,0.3-0.5,0.5-0.7,0.7c-0.4-0.4-0.8-0.6-1.4-0.8
				c-0.4-0.1-0.7-0.2-1.1-0.2c-0.2,0-0.5,0-0.7,0.1c-0.5,0.1-0.9,0.5-1.1,0.9c-0.2,0.4-0.2,0.8-0.1,1.1c0,0.1,0.1,0.2,0.2,0.3
				c0.1,0.1,0.2,0.2,0.3,0.2c0,0,0.1,0,0.1,0c0,0,0,0.1-0.1,0.1c0,0.1-0.1,0.3,0,0.4c0,0.2,0.1,0.3,0.2,0.4c0.1,0.1,0.2,0.2,0.3,0.3
				c0.1,0.1,0.3,0.1,0.5,0.2c0.1,0,0.1,0,0.2,0c0.1,0,0.1,0,0.2,0c0,0,0,0,0,0.1c0,0.1,0,0.2,0,0.3c0,0.1,0,0.2,0.1,0.2
				c0,0.1,0.1,0.2,0.2,0.2c0.2,0.1,0.4,0.2,0.6,0.2c0.1,0,0.2,0,0.3,0c0.1,0,0.2-0.1,0.4-0.2c0.2-0.1,0.3-0.3,0.5-0.5
				c0.1-0.2,0.2-0.4,0.3-0.7l0.1-0.2c0.1-0.2,0.1-0.3,0.2-0.4c0.1-0.2,0.2-0.3,0.3-0.5c0,0,0.1-0.1,0.1-0.1c0.1-0.1,0.2-0.1,0.3-0.2
				l0.1,0c0,0,0.1,0,0.1-0.1l0.1-0.1c0.2-0.1,0.4-0.3,0.6-0.5c0.3-0.3,0.5-0.5,0.6-0.8c0.1-0.2,0.2-0.4,0.3-0.5
				c0.1-0.2,0.2-0.3,0.2-0.5c0.1-0.1,0.1-0.3,0.1-0.4c0-0.1,0.1-0.3,0.1-0.4c0-0.2,0-0.3,0-0.5c0-0.2,0-0.3,0-0.4
				c0-0.2-0.1-0.3-0.1-0.5c0-0.1-0.1-0.3-0.2-0.4c-0.1-0.2-0.2-0.3-0.3-0.5c-0.1-0.2-0.2-0.3-0.3-0.4c-0.1-0.2-0.3-0.3-0.4-0.5
				c-0.1-0.1-0.3-0.3-0.5-0.4c-0.2-0.1-0.4-0.2-0.6-0.3c-0.2-0.1-0.4-0.2-0.6-0.3c-0.2-0.1-0.3-0.1-0.5-0.2
				c-0.2-0.1-0.4-0.1-0.5-0.1c-0.3-0.1-0.7-0.1-1-0.2C169.7,49.4,169.1,49.4,168.5,49.4"/>
			<path class="st13" d="M93.6,34.1c-0.1,0-0.2,0-0.4,0.1c-0.1,0-0.1,0.1-0.2,0.1c-0.1,0-0.1,0.1-0.2,0.2c0,0.1-0.1,0.1-0.1,0.2
				c0,0,0,0.1,0,0.1c-0.1-0.1-0.2-0.1-0.3-0.1c-0.1,0-0.1,0-0.2,0c-0.1,0-0.1,0-0.2,0c-0.1,0-0.3,0.1-0.4,0.2
				c-0.1,0.1-0.2,0.2-0.3,0.4c-0.1,0.1-0.1,0.3-0.2,0.5c0,0.1,0,0.2,0,0.3c-0.1,0-0.1-0.1-0.2-0.1c0,0,0,0-0.1,0
				c-0.3,0-0.5,0.2-0.6,0.4c-0.1,0.1-0.1,0.2-0.2,0.4c-0.1,0.2-0.1,0.3-0.1,0.5c-0.1,0.4-0.1,0.7,0,1c0,0,0,0,0,0
				c-0.2,0.8-0.4,1.7-0.5,2.7c-0.1,1-0.1,1.9-0.1,2.9c0,1,0.2,2,0.4,2.9c0.2,1,0.5,1.9,1,2.7c0.4,0.9,1,1.6,1.6,2.2
				c0.3,0.3,0.7,0.6,1.1,0.9c0.4,0.2,0.8,0.5,1.3,0.6c0.9,0.4,1.9,0.5,2.9,0.5c0.2,0,0.5,0,0.7,0c1.2-0.1,2.5-0.5,3.6-1.1
				c0.1-0.1,0.3-0.2,0.5-0.3c0,0,0,0,0,0c0,0,0.1,0,0.1,0c0.1-0.1,0.2-0.1,0.3-0.2c0.6-0.4,1.1-0.8,1.6-1.3c0,0,0.1-0.1,0.1-0.1
				c0-0.1,0-0.1-0.1-0.1c0,0-0.1-0.1-0.1-0.1c0,0-0.1,0-0.1,0.1c-0.3,0.3-0.6,0.5-0.9,0.8l0,0l0,0c0-0.1,0.1-0.2,0.1-0.4
				c0-0.1,0-0.2,0-0.3c0-0.1-0.1-0.2-0.2-0.3c0-0.1-0.1-0.1-0.2-0.1c0.1-0.1,0.3-0.2,0.4-0.3c0,0,0.1-0.1,0.1-0.1
				c0-0.1,0-0.1-0.1-0.1c0,0-0.1-0.1-0.1-0.1c0,0-0.1,0-0.1,0.1c-0.1,0.1-0.2,0.1-0.3,0.2c-0.1,0.1-0.3,0.2-0.4,0.3h0c0,0,0,0-0.1,0
				c-0.1,0-0.1,0-0.1,0.1c0,0,0,0.1-0.1,0.1c-0.5,0.3-1,0.6-1.6,0.8l0,0c-0.8,0.3-1.7,0.6-2.5,0.7c-0.4,0-0.7,0.1-1.1,0.1
				c-0.3,0-0.6,0-0.9-0.1l0,0c-0.5-0.1-1-0.2-1.4-0.4c-0.4-0.2-0.8-0.4-1.1-0.7l0,0l0,0c-0.4-0.3-0.8-0.7-1.1-1.2
				c-0.4-0.5-0.7-1.1-1-1.8c-0.3-0.8-0.6-1.7-0.7-2.7l0,0c-0.2-1.4-0.2-2.9,0-4.5c0.1-0.5,0.2-1,0.3-1.5c0.1,0.2,0.2,0.3,0.3,0.5
				c0.1,0.1,0.3,0.3,0.4,0.4c0.1,0.1,0.3,0.2,0.4,0.2c0.1,0,0.2,0,0.2,0c0.1,0,0.1,0,0.2,0c0.2,0,0.3-0.1,0.4-0.2
				c0.1-0.1,0.1-0.3,0.2-0.5c0-0.1,0-0.2,0-0.3l0,0c0.1,0,0.3,0.1,0.4,0.1c0,0,0.1,0,0.1,0c0.1,0,0.2,0,0.3,0c0.1,0,0.3-0.1,0.4-0.1
				c0.2-0.1,0.4-0.3,0.5-0.6c0-0.1,0-0.3,0-0.5c0,0,0,0,0,0c0.1,0,0.1,0,0.2,0c0.1,0,0.1-0.1,0.2-0.1c0,0,0.1-0.1,0.1-0.1
				c0-0.1,0.1-0.1,0.1-0.2c0-0.2,0.1-0.3,0.1-0.5c0-0.2,0-0.4,0-0.6c0-0.2-0.1-0.3-0.1-0.5c-0.1-0.4-0.2-0.7-0.3-0.9
				c-0.1-0.2-0.3-0.5-0.6-0.6c-0.1-0.1-0.3-0.2-0.5-0.2C94,34.2,93.9,34.1,93.6,34.1C93.7,34.1,93.6,34.1,93.6,34.1"/>
			<path class="st5" d="M118.1,21.4c-0.1,0-0.2,0-0.3,0c-0.4,0-0.8,0.1-1.1,0.1c-1.3,0.2-2.5,0.7-3.8,1.4c-1.1,0.6-2.1,1.5-3.1,2.5
				c-0.9,0.9-1.7,2-2.5,3.3c-0.7,1.1-1.3,2.4-1.9,3.8c-0.5,1.2-1,2.5-1.4,3.8c-0.2,0.7-0.4,1.4-0.6,2.2c-0.2,1-0.4,2-0.6,3.1
				c-0.7,3.9-0.9,8.1-0.7,12.3c0.2,3.8,0.8,7.9,1.8,11.9c0.9,3.7,2,6.9,3.4,9.6c0.8,1.5,1.7,3,2.7,4.2c0.5,0.6,1.1,1.3,1.7,1.9
				c0.3,0.3,0.6,0.6,0.9,0.8c0.3,0.2,0.6,0.4,0.9,0.6c0.5,0.3,1,0.5,1.5,0.7c0.4,0.1,0.9,0.2,1.3,0.2c0.1,0,0.1,0,0.2,0
				c0.2,0,0.4,0,0.7-0.1c0.2,0,0.4-0.1,0.7-0.2c0.4-0.2,0.8-0.5,1.2-0.9c0.8-0.9,1.1-2.2,1.4-3.3c0.1-0.3,0.1-0.5,0.2-0.8
				c0.2-1,0.4-2,0.7-2.9c0.1-0.2,0.2-0.4,0.3-0.6c0.1-0.2,0.2-0.4,0.4-0.6c0.1-0.1,0.2-0.3,0.4-0.4c0.1-0.1,0.3-0.2,0.5-0.4
				c0.1-0.1,0.2-0.2,0.4-0.2c0.1-0.1,0.2-0.1,0.4-0.2c0.1,0,0.2-0.1,0.3-0.1c0.1,0,0.2-0.1,0.3-0.1l0,0c0.1,0,0.2,0,0.3,0l0.1,0
				c0.1,0,0.2,0,0.3,0c0.1,0,0.3,0,0.4,0.1c0.1,0,0.3,0.1,0.5,0.2c0.2,0.1,0.4,0.2,0.6,0.3c0.2,0.1,0.4,0.3,0.6,0.4
				c0.6,0.5,1.2,1.1,1.7,1.6c0.2,0.2,0.3,0.4,0.5,0.6l0.3,0.3c0.3,0.4,0.6,0.7,1,1.1c1.5,1.6,2.7,2.8,4,3.9c1.5,1.3,3,2.3,4.5,3.1
				c0.8,0.4,1.5,0.8,2.3,1c0.9,0.3,1.7,0.5,2.5,0.5c0.1,0,0.2,0,0.2,0c0.2,0,0.5,0,0.7-0.1c0.2,0,0.3-0.1,0.5-0.1
				c0.2,0,0.4-0.1,0.6-0.2c0.5-0.2,1-0.5,1.4-0.9c0.1-0.1,0.3-0.3,0.5-0.6c0.1-0.2,0.3-0.4,0.4-0.7c0.2-0.5,0.3-1,0.4-1.6
				c0.2-1.1,0.1-2.3,0-3.3c0-0.2,0-0.5,0-0.7c0-0.4,0-0.8,0-1.2c0-0.7,0-1.5,0.2-2.3l0,0c0.1-0.9,0.3-1.8,0.6-2.7
				c0.2-0.8,0.5-1.7,0.9-2.6l0,0c1.5-3.5,3.6-6.6,5.6-9.2l0-0.1c0.5-0.7,1.1-1.4,1.6-2.2c0.5-0.7,1-1.5,1.5-2.2
				c1-1.5,1.8-3.1,2.5-4.6c0.7-1.6,1.4-3.2,1.8-4.9c0.2-0.8,0.4-1.7,0.6-2.7c0.1-0.6,0.2-1.4,0.3-2.2c0.1-1.1-0.1-2.3-0.4-3.4
				c-0.3-1-0.7-2.1-1.3-3.1c-0.6-0.9-1.3-1.8-2.1-2.7c-0.8-0.8-1.7-1.6-2.8-2.3c-1-0.7-2-1.4-3.2-2c-1.1-0.6-2.2-1.1-3.5-1.6
				c-2.3-0.9-4.7-1.7-7.2-2.2c-1.1-0.2-2.2-0.4-3.3-0.6c-0.7-0.1-1.4-0.2-2.1-0.2c-0.6,0-1.3-0.1-1.9-0.1c-0.3,0-0.7,0-1.1,0
				c-2.4,0.1-4.8,0.5-6.5,0.8c-0.2,0-0.5,0-0.7,0h-0.1c-0.3,0-0.6,0-1-0.1l0,0c-0.9-0.1-1.8-0.4-2.5-0.6c-0.4-0.1-0.8-0.2-1.1-0.4
				c-0.5-0.1-1-0.3-1.4-0.4c-0.4-0.1-0.8-0.2-1.2-0.3c-0.4-0.1-0.8-0.2-1.3-0.2C118.8,21.4,118.5,21.4,118.1,21.4 M103,43.6
				L103,43.6L103,43.6c0,0.1,0,0.2,0,0.3C103,43.8,103,43.7,103,43.6L103,43.6L103,43.6L103,43.6L103,43.6L103,43.6L103,43.6
				C103,43.6,103,43.6,103,43.6C103,43.6,103,43.6,103,43.6"/>
			<path class="st11" d="M126.6,42.5L126.6,42.5c-0.6,0-1.1,0.1-1.6,0.2c-0.5,0.1-1,0.3-1.4,0.5c-0.2,0.1-0.4,0.2-0.6,0.4
				c-0.2,0.1-0.4,0.3-0.5,0.5c-0.3,0.3-0.5,0.5-0.6,0.9c-0.1,0.2-0.1,0.3-0.2,0.5c-0.1,0.2-0.1,0.4-0.1,0.5c0,0,0,0-0.1,0
				c0,0,0,0,0,0.1c0,0,0,0.1,0,0.1c0.7,0.8,1.7,1.4,3,1.9c0.5,0.2,1.1,0.4,1.8,0.5c0.6,0.1,1.2,0.2,1.8,0.2c0.1,0,0.2,0,0.2,0
				c0.3,0,0.7,0,1.1-0.1c0.5,0,1-0.1,1.5-0.2c0.5-0.1,1-0.3,1.5-0.5c0.5-0.2,0.9-0.4,1.2-0.7c0,0,0,0,0,0c0.1-0.1,0.1-0.1,0-0.2
				c0,0,0,0-0.1,0c-0.2-0.5-0.4-1.1-0.7-1.7c-0.2-0.3-0.4-0.6-0.6-0.8c-0.2-0.2-0.4-0.4-0.7-0.6c-0.2-0.2-0.5-0.3-0.8-0.5
				c-0.3-0.1-0.5-0.2-0.9-0.4c-0.5-0.2-1.1-0.3-1.8-0.4C127.5,42.6,127,42.5,126.6,42.5"/>
			<path class="st13" d="M136.1,40.9c-0.1-0.5-0.3-1-0.5-1.4c-0.1-0.2-0.2-0.3-0.4-0.5c-0.1-0.1-0.3-0.2-0.4-0.4
				c-0.3-0.2-0.6-0.3-1-0.4c-0.3-0.1-0.6-0.1-1-0.1c0,0-0.1,0-0.1,0c-0.4,0-0.8,0-1.2,0.1c-0.4,0.1-0.9,0.2-1.3,0.3
				c-0.2,0.1-0.4,0.1-0.7,0.2c-0.1,0-0.2,0.1-0.3,0.1c0,0-0.1,0-0.1,0c-0.3,0.1-0.6,0.1-0.9,0.1c0,0,0,0,0,0c-0.1,0-0.1,0-0.2,0
				c-0.1,0-0.2,0-0.2,0c-0.2,0-0.4-0.1-0.6-0.2c-0.5-0.2-0.9-0.5-1.3-0.8l-0.1,0c-0.5-0.3-0.9-0.6-1.4-0.8c-0.3-0.1-0.5-0.2-0.8-0.2
				c-0.1,0-0.3,0-0.4,0c-0.1,0-0.2,0-0.3,0c-0.4,0-0.8,0.2-1.2,0.4c-0.3,0.2-0.6,0.5-0.9,0.9c-0.2,0.3-0.5,0.7-0.7,1.2
				c-0.2,0.4-0.3,0.9-0.4,1.3c-0.1,0.5-0.1,0.9-0.1,1.4c0,0.4,0.1,0.8,0.2,1.2c0.1,0.3,0.2,0.7,0.4,1c0.3,0.6,0.6,1.2,1.1,1.7
				c0.1,0.1,0.1,0.1,0.2,0.2c0,0,0,0.1,0.1,0.1c0.8,0.8,1.9,1.5,3.2,2c0.6,0.2,1.3,0.4,2.1,0.5c0.5,0.1,1.1,0.1,1.6,0.1
				c0.2,0,0.3,0,0.5,0c1.5-0.1,2.8-0.4,4-1c0.6-0.3,1.1-0.7,1.6-1.1c0.5-0.4,0.9-1,1.2-1.5c0.3-0.6,0.5-1.2,0.6-1.9
				C136.3,42.5,136.3,41.7,136.1,40.9z M132.2,47.9c-0.8,0.3-1.6,0.5-2.4,0.7h0c-0.5,0.1-1,0.1-1.4,0.1c-0.5,0-1,0-1.5-0.1l0,0
				c-0.9-0.1-1.8-0.4-2.7-0.7c-0.7-0.3-1.3-0.7-1.9-1.1c-0.2-0.2-0.5-0.4-0.7-0.6c0,0,0,0,0,0s0,0,0,0l0,0l0,0
				c0.2-0.4,0.4-0.7,0.6-1.1l0,0l0,0c0.2-0.3,0.5-0.6,0.9-0.9c0.4-0.3,0.8-0.5,1.2-0.7c0.5-0.2,1.1-0.4,1.7-0.5l0,0
				c0.3,0,0.7-0.1,1-0.1c0.3,0,0.7,0,1,0.1l0,0c0.7,0.1,1.4,0.3,2,0.5c0.5,0.2,1,0.5,1.4,0.8c0.4,0.3,0.7,0.6,0.9,0.9c0,0,0,0,0,0
				l0,0c0,0,0,0,0,0l0,0c0.2,0.3,0.5,0.7,0.6,1.1c0.1,0.3,0.2,0.6,0.3,0.9C133,47.5,132.6,47.7,132.2,47.9z"/>
			<path class="st8" d="M135,22.5c-2.4,0.1-4.8,0.5-6.5,0.8c-0.2,0-0.5,0-0.7,0h-0.1c-0.3,0-0.6,0-1-0.1c-0.5-0.1-0.9-0.2-1.4-0.3
				c0,0,0,0.1,0,0.1l0,0c-0.1,0.2-0.2,0.5-0.3,0.8c-0.1,0.2-0.1,0.5-0.2,0.8c0,0,0,0,0,0v0c0,0.2,0,0.5,0,0.7c0,0.2,0,0.5,0,0.7
				c0,0,0,0,0,0c0,0.3,0.1,0.5,0.2,0.7c0.1,0.2,0.1,0.5,0.2,0.7v0c0,0,0,0,0,0l0,0c0.1,0.2,0.2,0.4,0.3,0.7c0.1,0.2,0.3,0.4,0.4,0.6
				c0.1,0.2,0.3,0.4,0.5,0.5c0.2,0.2,0.3,0.3,0.5,0.5l0,0c0,0,0,0,0,0c0,0,0,0,0,0c0,0,0,0,0,0c0,0,0,0,0,0l0,0l0,0l0,0l0,0
				c0.2,0.1,0.4,0.3,0.6,0.4c0.2,0.1,0.4,0.2,0.6,0.3c0,0,0,0,0,0c0.2,0.1,0.5,0.2,0.7,0.2c0.2,0.1,0.5,0.1,0.8,0.2h0
				c0.3,0,0.5,0.1,0.8,0.1c0.3,0,0.5,0,0.8-0.1h0c0.2,0,0.4-0.1,0.6-0.1c0,0,0.1,0,0.1,0c0,0,0.1,0,0.1,0c0,0,0,0,0,0
				c0,0,0.1,0,0.1,0c0,0,0,0,0,0c0,0,0,0,0,0c0,0.2,0.1,0.4,0.2,0.5l0,0c0.2,0.4,0.4,0.7,0.6,1.1c0,0,0,0,0,0l0,0
				c0.2,0.3,0.5,0.6,0.9,0.9c0,0,0,0,0,0c0.2,0.2,0.5,0.3,0.7,0.4c0.2,0.1,0.4,0.1,0.6,0.2c0,0,0,0,0,0c0.1,0,0.3,0,0.4,0l0,0h0
				c0,0,0,0,0,0h0c0.1,0,0.2-0.1,0.4-0.1c0,0,0,0,0,0c0.1-0.1,0.2-0.1,0.4-0.2c0.1-0.1,0.1-0.1,0.2-0.2c0.1-0.1,0.1-0.1,0.2-0.2l0,0
				c0,0,0,0,0,0c0,0,0,0,0,0c0,0,0,0,0,0c0,0,0,0,0,0c0,0,0,0,0,0l0,0c0.1-0.1,0.2-0.2,0.2-0.3c0.1-0.1,0.1-0.3,0.2-0.4
				c0,0,0,0,0.1,0c0,0,0,0,0,0c0.1,0.1,0.1,0.1,0.2,0.2c0.1,0.1,0.1,0.1,0.2,0.1l0,0c0,0,0,0,0,0c0,0,0,0,0,0c0,0,0,0,0,0
				c0,0,0,0,0,0c0.1,0.1,0.2,0.1,0.2,0.2c0.1,0,0.2,0.1,0.2,0.1c0,0,0,0,0,0c0.1,0,0.2,0.1,0.3,0.1c0.1,0,0.2,0,0.2,0.1c0,0,0,0,0,0
				c0.1,0,0.2,0,0.3,0c0.1,0,0.2,0,0.3,0h0c0,0,0,0,0,0h0c0.1,0,0.2,0,0.3-0.1c0.1,0,0.2,0,0.2-0.1c0,0,0,0,0,0
				c0.1,0,0.2-0.1,0.3-0.1c0.1,0,0.1-0.1,0.2-0.1c0.1-0.1,0.1-0.1,0.2-0.2c0.1-0.1,0.1-0.1,0.2-0.2c0.1-0.1,0.1-0.2,0.2-0.3
				c0,0,0,0,0.1,0c0,0,0,0,0,0c0,0.1,0.1,0.2,0.1,0.2l0,0c0.1,0.3,0.2,0.5,0.4,0.7c0.1,0.2,0.3,0.4,0.4,0.6c0.1,0.2,0.3,0.3,0.4,0.5
				c0.1,0.1,0.3,0.3,0.5,0.4l0,0c0,0,0,0,0,0l0,0c0,0,0,0,0,0c0,0,0,0,0,0l0,0c0.1,0.1,0.3,0.2,0.4,0.3c0.2,0.1,0.3,0.2,0.5,0.2l0,0
				c0.1,0.1,0.3,0.1,0.5,0.2c0.1,0,0.3,0.1,0.4,0.1c0,0,0,0,0,0c0.1,0,0.3,0,0.4,0c0.1,0,0.3,0,0.4,0h0c0.1,0,0.3,0,0.4-0.1
				c0.1,0,0.3-0.1,0.4-0.1c0,0,0,0,0,0c0,0,0,0,0,0c0,0,0,0,0,0c0,0,0,0,0,0s0,0,0,0c0.1-0.1,0.3-0.1,0.4-0.2s0.3-0.2,0.4-0.3
				c0.1-0.1,0.3-0.2,0.4-0.4c0.1-0.1,0.3-0.3,0.4-0.5c0.2-0.3,0.4-0.6,0.6-0.9c0,0,0,0,0.1,0c0,0,0,0,0,0.1c0,0.7,0,1.5,0.1,2.2v0
				c0,0.2,0.1,0.5,0.1,0.7c0.1,0.2,0.1,0.4,0.2,0.7l0,0c0.1,0.1,0.1,0.3,0.2,0.4c0.1,0.1,0.2,0.3,0.3,0.4c0.1,0.1,0.2,0.2,0.3,0.3
				c0.1,0.1,0.2,0.2,0.4,0.3c0.2,0.2,0.4,0.3,0.6,0.4c0.2,0.1,0.4,0.2,0.6,0.3c0,0,0,0,0,0c0.6,0.2,1.2,0.4,1.9,0.5c0,0,0,0,0,0
				c0.5,0.1,1.1,0.1,1.7,0c0,0,0,0,0,0c0.2,0,0.4-0.1,0.6-0.1c0.2,0,0.4-0.1,0.5-0.2c0,0,0,0,0,0c0.1-0.1,0.2-0.1,0.4-0.2
				c0.1-0.1,0.2-0.1,0.3-0.2h0c0,0,0,0,0,0c0.1-0.1,0.1-0.1,0.2-0.2c0,0,0,0,0.1,0c0,0,0,0,0,0c0.1,0.5,0.2,0.9,0.4,1.4l0,0
				c0.1,0.1,0.1,0.2,0.2,0.4c0.1,0.1,0.1,0.2,0.2,0.3c0.1,0.1,0.1,0.2,0.2,0.2c0.1,0.1,0.1,0.1,0.2,0.2h0c0,0,0,0,0,0h0c0,0,0,0,0,0
				l0,0c0,0,0,0,0,0c0.1,0.1,0.1,0.1,0.2,0.1c0.1,0,0.2,0.1,0.3,0.1c0,0,0,0,0,0c0.1,0,0.2,0.1,0.3,0.1c0.1,0,0.2,0.1,0.3,0.1
				c0,0,0,0,0,0c0,0,0,0,0,0c0,0,0,0,0,0c0,0,0.1,0,0.1,0.1c0.1,0.2,0.1,0.5,0.1,0.8c0.1,0.5,0.1,0.9,0.1,1.4c0,0.5,0,0.9-0.1,1.4
				c-0.1,0.9-0.4,1.8-0.7,2.7c-0.3,0.9-0.7,1.8-1.2,2.7c-0.5,0.9-1,1.8-1.6,2.6c-1.2,1.7-2.5,3.4-3.7,5.1c-0.6,0.8-1.2,1.6-1.8,2.5
				c-0.5,0.8-1,1.6-1.5,2.5c0,0,0,0,0,0c-0.2,0.4-0.4,0.7-0.5,1.1c-0.1,0.2-0.2,0.5-0.3,0.7c-0.1,0.3-0.2,0.6-0.3,0.8
				c-0.2,0.6-0.4,1.1-0.6,1.7c-0.2,0.6-0.3,1.1-0.4,1.7v0c-0.2,0.8-0.3,1.6-0.4,2.4c0,0.4-0.1,0.8-0.1,1.2c0,0.4,0,0.8,0,1.2l0,0
				c0,0.3,0,0.7,0.1,1c0,0.3,0.1,0.7,0.1,1c0.1,0.6,0.2,1.3,0.3,1.9c0.1,0.7,0.2,1.3,0.3,2c0,0.3,0.1,0.7,0.1,1c0,0.2,0,0.4,0,0.7
				c0,0.5,0,1-0.1,1.5c0,0.2-0.1,0.4-0.1,0.7c-0.1,0.2-0.1,0.4-0.2,0.6c-0.1,0.2-0.2,0.4-0.3,0.6c0,0,0,0.1,0,0.1
				c0.2-0.1,0.4-0.3,0.6-0.5c0.1-0.1,0.3-0.3,0.5-0.6c0.1-0.2,0.3-0.4,0.4-0.7c0.2-0.5,0.3-1,0.4-1.6c0.2-1.1,0.1-2.3,0-3.3l0-0.7
				l0,0c0-0.4,0-0.8,0-1.2c0-0.7,0-1.5,0.2-2.3l0,0c0.1-0.9,0.3-1.8,0.6-2.7c0.2-0.8,0.5-1.7,0.9-2.6c1.5-3.5,3.6-6.6,5.6-9.2l0-0.1
				l0.1-0.1l0,0c0.5-0.7,1-1.3,1.5-2c0.5-0.7,1-1.5,1.5-2.2c1-1.5,1.8-3.1,2.5-4.6c0.7-1.6,1.4-3.2,1.8-4.9c0.2-0.8,0.4-1.7,0.6-2.7
				c0.1-0.6,0.2-1.4,0.3-2.2c0.1-1.1-0.1-2.3-0.4-3.4c-0.3-1-0.7-2.1-1.3-3.1c-0.6-0.9-1.3-1.8-2.1-2.7c-0.8-0.8-1.7-1.6-2.8-2.3
				c-1-0.7-2-1.4-3.2-2c-1.1-0.6-2.2-1.1-3.5-1.6c-2.3-0.9-4.7-1.7-7.2-2.2c-1.1-0.3-2.2-0.5-3.3-0.6c-0.7-0.1-1.4-0.2-2.1-0.2
				c-0.6,0-1.3-0.1-1.9-0.1C135.7,22.5,135.4,22.5,135,22.5 M137.6,32.9L137.6,32.9L137.6,32.9z M137.6,32.9
				C137.6,32.9,137.6,32.9,137.6,32.9C137.6,32.9,137.6,32.9,137.6,32.9C137.6,32.9,137.6,32.9,137.6,32.9 M139.7,33.2
				C139.7,33.2,139.7,33.2,139.7,33.2C139.7,33.2,139.7,33.2,139.7,33.2 M139.2,33.3L139.2,33.3L139.2,33.3z M135.7,34
				C135.7,34,135.7,34,135.7,34L135.7,34C135.7,34,135.7,34,135.7,34 M148.4,35.4C148.4,35.4,148.4,35.4,148.4,35.4
				C148.4,35.4,148.4,35.4,148.4,35.4 M156.4,38.8C156.4,38.8,156.4,38.8,156.4,38.8C156.4,38.8,156.4,38.8,156.4,38.8 M155.7,39.2
				C155.7,39.2,155.7,39.2,155.7,39.2C155.7,39.2,155.7,39.2,155.7,39.2 M148.9,63.2C148.9,63.2,148.9,63.2,148.9,63.2L148.9,63.2z"
				/>
			<path class="st8" d="M122.9,72.5L122.9,72.5L122.9,72.5C122.9,72.5,122.8,72.5,122.9,72.5C122.8,72.5,122.8,72.5,122.9,72.5
				L122.9,72.5L122.9,72.5L122.9,72.5c-0.2,0-0.3,0.1-0.5,0.1s-0.3,0.1-0.5,0.2c0,0,0,0,0,0c-0.2,0.1-0.4,0.2-0.6,0.3
				c-0.2,0.1-0.4,0.2-0.5,0.4c0,0,0,0,0,0c-0.2,0.2-0.4,0.4-0.6,0.6c-0.2,0.2-0.4,0.4-0.5,0.6l0,0c0,0,0,0,0,0s0,0,0,0v0
				c0,0,0,0,0,0s0,0,0,0c0,0,0,0,0,0c-0.2,0.2-0.3,0.5-0.5,0.7c-0.1,0.2-0.3,0.5-0.4,0.8c0,0,0,0,0,0c-0.3,0.8-0.5,1.6-0.7,2.5
				c-0.1,0.4-0.2,0.9-0.3,1.3c0,0.2-0.1,0.4-0.1,0.6c-0.1,0.2-0.1,0.4-0.2,0.6c-0.2,0.5-0.5,1-0.8,1.4c-0.2,0.2-0.4,0.4-0.6,0.6
				c-0.2,0.2-0.4,0.3-0.6,0.4c-0.2,0.1-0.3,0.1-0.5,0.2c0.4,0.1,0.8,0.2,1.3,0.2c0.1,0,0.1,0,0.2,0c0.2,0,0.4,0,0.7-0.1
				c0.2,0,0.4-0.1,0.7-0.2c0.4-0.2,0.8-0.5,1.2-0.9c0.8-0.9,1.1-2.2,1.4-3.3c0.1-0.3,0.1-0.5,0.2-0.8c0.2-1,0.4-2,0.7-2.9
				c0.1-0.2,0.2-0.4,0.3-0.6c0.1-0.2,0.2-0.4,0.4-0.6c0.1-0.2,0.2-0.3,0.4-0.4c0.1-0.1,0.3-0.2,0.5-0.4c0.1-0.1,0.2-0.2,0.4-0.2
				c0.1-0.1,0.2-0.1,0.4-0.2c0.1,0,0.2-0.1,0.3-0.1c0.1,0,0.2-0.1,0.3-0.1c0.1,0,0.2,0,0.3,0h0.1c0.1,0,0.2,0,0.3,0
				c0.1,0,0.1,0,0.2,0c-0.1,0-0.2-0.1-0.3-0.1c0,0,0,0,0,0c-0.2-0.1-0.3-0.1-0.5-0.2c-0.2,0-0.3-0.1-0.5-0.1l0,0c-0.1,0-0.3,0-0.5,0
				C123.1,72.4,123,72.5,122.9,72.5 M123.7,72.5L123.7,72.5L123.7,72.5z"/>
			<g>
				<path class="st8" d="M113.1,72.4c0-0.3-0.1-0.5-0.1-0.8c-0.2-1-0.6-1.9-1-2.8c-0.2-0.6-0.4-1.1-0.6-1.7
					c-0.3-0.7-0.5-1.5-0.7-2.2c-0.2-0.7-0.4-1.5-0.6-2.3c-0.2-0.7-0.3-1.4-0.5-2.2c-0.3-1.4-0.4-2.9-0.8-4.3c-0.1-0.4-0.2-0.7-0.3-1
					c-0.1-0.4-0.2-0.7-0.4-1c0,0,0,0,0-0.1v0c0,0,0,0,0,0c0,0,0-0.1,0-0.1c-0.1-0.1-0.1-0.2-0.2-0.4c-0.1-0.1-0.2-0.3-0.4-0.3
					c-0.2-0.1-0.4-0.1-0.5-0.1c0,0,0,0,0,0c-0.2,0-0.3,0-0.5,0.1c-0.2,0.1-0.3,0.2-0.4,0.3c-0.3,0.3-0.5,0.6-0.6,0.9
					c-0.2,0.4-0.3,0.8-0.4,1.3c-0.1,0.5-0.1,0.9-0.2,1.4c-0.1,0.7-0.1,1.5,0,2.3c0,1.6,0.2,3.2,0.5,4.7c0.3,1.4,0.6,2.9,1.1,4.3
					c0.2,0.6,0.4,1.2,0.6,1.8c0.2,0.6,0.5,1.2,0.8,1.8c0.2,0.3,0.4,0.6,0.6,1c0.1,0.2,0.2,0.3,0.4,0.5c0,0,0.1,0.1,0.1,0.1
					c0.2,0.3,0.4,0.5,0.5,0.7c0.2,0.2,0.4,0.5,0.7,0.6c0.2,0.2,0.5,0.3,0.8,0.3c0.3,0.1,0.6,0.1,0.9,0c0.2,0,0.3-0.1,0.4-0.2
					c0.2-0.1,0.4-0.2,0.5-0.4c0.2-0.2,0.3-0.4,0.4-0.6c0-0.1,0.1-0.2,0.1-0.4c0-0.1,0.1-0.3,0.1-0.4
					C113.1,72.8,113.1,72.6,113.1,72.4z M110.2,73.2c0.1,0.1,0.2,0.2,0.2,0.3c0,0,0.1,0.1,0.1,0.1c0,0-0.1,0-0.1-0.1c0,0,0,0,0-0.1
					C110.3,73.4,110.3,73.3,110.2,73.2z"/>
				<path class="st8" d="M104.9,50.8c0,0.1,0,0.1,0.1,0.2c0.1,0.2,0.2,0.4,0.3,0.6c0.1,0.2,0.3,0.4,0.5,0.5c0.3,0.1,0.6,0.2,0.8,0.1
					c0.2-0.1,0.3-0.1,0.4-0.2c0.1-0.1,0.2-0.2,0.3-0.3c0.1-0.1,0.1-0.2,0.2-0.4c0-0.1,0.1-0.2,0.1-0.4c0.1-0.3,0.1-0.6,0.1-0.9
					c0-0.3,0-0.5,0-0.8c0-0.2-0.1-0.5-0.1-0.7c0-0.2-0.1-0.3-0.2-0.5c-0.1-0.2-0.2-0.3-0.4-0.5c-0.1-0.1-0.2-0.1-0.2-0.2
					c-0.1-0.1-0.2-0.1-0.3-0.1c-0.1,0-0.3-0.1-0.4-0.1c-0.1,0-0.2,0-0.2,0c-0.2,0-0.4,0.1-0.6,0.3c-0.1,0.1-0.3,0.3-0.4,0.4
					c-0.1,0.1-0.1,0.3-0.2,0.4c0,0.1-0.1,0.3-0.1,0.4c0,0.3-0.1,0.6,0,1C104.7,50.1,104.7,50.5,104.9,50.8z"/>
			</g>
			<path class="st13" d="M116.2,32.4c-1-0.2-2.3,1.4-2.8,3.7c-0.5,2.3-0.1,4.3,0.9,4.6c1,0.2,2.3-1.4,2.8-3.7
				C117.6,34.7,117.2,32.6,116.2,32.4"/>
			<path class="st13" d="M143.8,37.2c-1-0.2-2.3,1.5-2.9,3.9c-0.5,2.4-0.1,4.5,0.9,4.7c1,0.2,2.3-1.5,2.9-3.9
				C145.2,39.5,144.8,37.4,143.8,37.2"/>
			<path class="st5" d="M115.8,34.8c0,0.3,0.2,0.5,0.5,0.5s0.5-0.2,0.5-0.5c0-0.3-0.2-0.5-0.5-0.5C116.1,34.3,115.8,34.5,115.8,34.8
				"/>
			<path class="st5" d="M116.1,36c0,0.2,0.1,0.3,0.3,0.3c0.2,0,0.3-0.1,0.3-0.3c0-0.2-0.1-0.3-0.3-0.3
				C116.2,35.7,116.1,35.9,116.1,36"/>
			<path class="st5" d="M143.5,39.5c0,0.3,0.2,0.5,0.5,0.5c0.3,0,0.5-0.2,0.5-0.5c0-0.3-0.2-0.5-0.5-0.5
				C143.8,38.9,143.5,39.2,143.5,39.5"/>
			<path class="st5" d="M143.8,40.7c0,0.2,0.1,0.3,0.3,0.3c0.2,0,0.3-0.1,0.3-0.3c0-0.2-0.1-0.3-0.3-0.3
				C143.9,40.4,143.8,40.5,143.8,40.7"/>
		</g>
		<g>
			<path class="st3" d="M142,9.8c-0.2,0-0.4,0-0.6,0c-0.5,0.1-1,0.3-1.4,0.6c-0.4,0.3-0.8,0.7-1.1,1.2c-0.1,0.2-0.2,0.5-0.3,0.7
				c-0.1,0.2-0.1,0.5-0.2,0.8c0,0.3,0,0.5,0,0.8c0,0.1,0,0.1,0,0.2c-0.1-0.1-0.3-0.1-0.4-0.1c-0.2,0-0.4,0-0.6,0.1
				c-0.2,0.1-0.4,0.2-0.5,0.3c-0.1,0.1-0.3,0.3-0.4,0.4c-0.1,0.2-0.2,0.3-0.2,0.5c-0.9-1.2-2.4-2-3.9-2c0,0-0.1,0-0.1,0
				c-0.5,0-1,0.1-1.4,0.3c-0.5,0.2-0.9,0.5-1.2,0.8c-0.4,0.4-0.7,0.9-0.9,1.3c-0.2,0.5-0.3,1-0.3,1.5c0,0.6,0.2,1.3,0.5,1.8
				c0.2,0.4,0.6,0.7,1,1l0,0h0c0,0,0,0,0,0c-0.2,0-0.4,0-0.7,0.1c-0.4,0.1-0.8,0.3-1.2,0.5c-0.3,0.2-0.7,0.6-0.9,1
				c-0.2,0.4-0.4,0.8-0.6,1.2c-0.1,0.4-0.2,0.9-0.2,1.4c0,0.5,0,0.9,0.1,1.4c0.1,0.5,0.3,0.9,0.6,1.4c0.3,0.4,0.6,0.8,1,1.1
				c0.8,0.6,1.8,0.9,2.9,0.9c0.9,0,1.8-0.2,2.7-0.6c0,0,0,0,0,0c-0.1,0.2-0.1,0.3-0.2,0.5c0,0.2,0,0.3,0,0.5c0,0.2,0.1,0.3,0.2,0.5
				c0.2,0.3,0.5,0.5,0.7,0.6c0.3,0.2,0.6,0.2,1,0.2c0.4,0,0.9-0.1,1.3-0.4c0.3-0.2,0.5-0.4,0.7-0.7c0,0.1,0,0.2,0.1,0.3
				c0.1,0.1,0.2,0.3,0.3,0.4c0.1,0.1,0.2,0.2,0.4,0.3c0.2,0.2,0.5,0.3,0.9,0.3c0.1,0,0.3,0,0.4,0c0.2,0,0.4,0,0.6-0.1
				c0.6-0.1,1.1-0.4,1.5-0.8c0.2-0.2,0.3-0.4,0.4-0.7c0-0.2,0.1-0.3,0.1-0.4c0-0.1,0-0.2,0-0.3c0,0,0.1,0,0.1,0c0.1,0,0.2,0,0.3,0
				c0.1,0,0.1,0,0.2,0c-0.1,0.1-0.1,0.3-0.1,0.4c-0.1,0.3-0.1,0.5,0,0.8c0.1,0.5,0.3,1,0.6,1.4c0.3,0.4,0.8,0.7,1.3,0.9
				c0.3,0.1,0.7,0.2,1.1,0.2c0.2,0,0.4,0,0.6-0.1c0.5-0.1,1-0.3,1.5-0.6c0.4-0.3,0.8-0.7,1.1-1.1c0.3-0.4,0.6-0.9,0.7-1.4
				c0-0.1,0.1-0.2,0.1-0.4c0,0,0,0.1,0.1,0.1c0.3,0.3,0.6,0.6,1,0.7c0.1,0,0.2,0.1,0.3,0.1c0.1,0,0.2,0,0.3,0h0c0.1,0,0.1,0,0.2,0
				c-0.3,0.3-0.5,0.7-0.6,1.1c-0.2,0.5-0.3,1-0.4,1.5c0,0.2,0,0.5,0,0.8c0,0.2,0.1,0.5,0.1,0.7c0.1,0.5,0.3,0.9,0.6,1.3
				c0.3,0.4,0.7,0.8,1.1,1.1c0.8,0.6,1.8,0.9,2.7,0.9c0.1,0,0.2,0,0.2,0c0.7,0,1.5-0.3,2-0.8c0.3-0.2,0.6-0.5,0.8-0.9l0,0l0,0
				c0,0.1,0,0.2,0,0.3c0.1,0.4,0.2,0.8,0.5,1.2c0.5,0.7,1.2,1.3,2.1,1.7c0.4,0.2,0.9,0.3,1.4,0.3c0.1,0,0.2,0,0.3,0
				c0.4,0,0.7,0,1.1-0.1c0.5-0.1,0.9-0.3,1.3-0.7c0.4-0.3,0.7-0.7,0.9-1.2c0.3-0.6,0.4-1.2,0.3-1.9c0-0.2,0-0.3-0.1-0.5
				c0-0.2-0.1-0.3-0.2-0.5c-0.1-0.2-0.2-0.4-0.3-0.6c0.2-0.1,0.4-0.2,0.5-0.4c0.1-0.1,0.2-0.2,0.2-0.4c0-0.1,0-0.1,0.1-0.2
				c0.1,0.1,0.2,0.1,0.3,0.2c0.1,0.1,0.3,0.2,0.5,0.3c0.3,0.1,0.6,0.2,0.9,0.2h0c0.3,0,0.5-0.1,0.8-0.2c0.2-0.1,0.5-0.2,0.7-0.4
				c0.4-0.4,0.7-0.9,0.9-1.5c0.1-0.3,0.2-0.6,0.2-0.9c0-0.3,0-0.6,0-0.9c-0.1-0.6-0.3-1.2-0.7-1.5c-0.2-0.2-0.4-0.4-0.7-0.5
				c-0.3-0.1-0.6-0.2-1-0.2c-0.1,0-0.2,0-0.2,0c0.2-0.2,0.4-0.5,0.5-0.8c0.1-0.3,0.1-0.7,0.1-1.1c-0.1-0.3-0.2-0.7-0.4-1
				c-0.2-0.3-0.5-0.6-0.8-0.9c-0.3-0.3-0.7-0.5-1-0.6c-0.2-0.1-0.4-0.2-0.6-0.2c-0.2-0.1-0.4-0.1-0.6-0.1c-0.2,0-0.3,0-0.5,0
				c-0.2,0-0.5,0-0.7,0.1c-0.4,0.1-0.7,0.3-1.1,0.5c-0.2,0.1-0.3,0.3-0.5,0.5c0,0,0,0.1,0,0.1l-0.1-0.1l-0.1,0
				c-0.5-0.2-1.1-0.4-1.8-0.8c-0.6-0.3-1.2-0.7-1.8-1.1l-0.1,0l-0.2-0.1c-0.4-0.3-1-0.6-1.5-1c-0.2-0.1-0.5-0.3-0.8-0.4l-0.2-0.1
				c-0.3-0.2-0.7-0.4-1-0.5c-1.6-0.8-2.8-1.4-4-1.9c-0.1,0-0.2-0.1-0.3-0.1l-0.1,0c-0.2-0.1-0.4-0.1-0.6-0.2c-0.3-0.1-0.6-0.2-1-0.4
				c-0.3-0.2-0.6-0.3-0.9-0.5c-0.3-0.2-0.7-0.4-1-0.5c-0.4-0.2-0.7-0.3-1.1-0.5c0.1-1.1,0-2.1-0.4-3c-0.2-0.5-0.5-0.9-0.8-1.3
				c-0.4-0.4-0.8-0.7-1.4-0.8c-0.3-0.1-0.5-0.2-0.8-0.2C142.1,9.8,142,9.8,142,9.8"/>
			<path class="st10" d="M141.4,9.8c-0.2,0-0.4,0.1-0.5,0.1c0.1,0,0.1,0,0.2,0c0.1,0,0.3,0.1,0.4,0.1c0.5,0.2,0.9,0.6,1.3,1
				c0.2,0.3,0.4,0.7,0.6,1.1c0.1,0.2,0.1,0.4,0.1,0.6c0,0.2,0,0.4,0,0.6c0,0.4-0.1,0.8-0.3,1.1c-0.1,0.2-0.2,0.3-0.3,0.5
				c-0.1,0.1-0.3,0.3-0.5,0.4c0,0-0.1,0-0.1,0c0-0.2-0.1-0.3-0.1-0.5l0,0c-0.1-0.1-0.1-0.2-0.2-0.3c-0.1-0.1-0.1-0.1-0.2-0.2
				c0,0,0,0,0,0c0,0,0,0,0,0l0,0l0,0c-0.1-0.1-0.1-0.1-0.2-0.1c0,0,0,0,0,0c-0.1,0-0.2-0.1-0.3-0.1c0,0,0,0,0,0c-0.1,0-0.2,0-0.3,0
				l0,0c0,0,0,0,0,0h0c0,0,0,0,0,0c0,0,0,0,0,0c0,0,0,0,0,0h0c-0.1,0-0.3,0.1-0.4,0.1c0,0,0,0,0,0c-0.1,0.1-0.3,0.1-0.4,0.2
				c0,0,0,0,0,0c-0.1,0.1-0.2,0.2-0.3,0.3c-0.1,0.1-0.2,0.3-0.2,0.4l0,0c-0.1,0.1-0.1,0.3-0.1,0.4c0,0,0,0,0,0v0l0,0l0,0
				c0,0.1,0,0.2,0,0.4v0c0,0.1,0.1,0.2,0.1,0.4l0,0c0,0,0,0,0,0l0,0v0l0,0l0,0c0.1,0.1,0.1,0.2,0.2,0.4c0.1,0.1,0.1,0.1,0.2,0.2
				c0,0,0,0.1,0,0.1c0,0,0,0-0.1,0c-0.1,0-0.3,0-0.4,0c0,0,0,0,0,0c-0.4,0.1-0.9,0.2-1.3,0.4l0,0c-0.4,0.2-0.7,0.4-1,0.6
				c-0.1,0.1-0.2,0.2-0.3,0.3c-0.1,0.1-0.2,0.2-0.3,0.3c0,0,0,0,0,0c0,0,0,0,0,0l0,0c0,0,0,0,0,0l0,0c0,0,0,0,0,0l0,0
				c-0.1,0.1-0.1,0.2-0.2,0.3s-0.1,0.2-0.2,0.3l0,0l0,0l0,0c-0.1,0.2-0.1,0.4-0.2,0.7c0,0,0,0,0,0c0,0.1,0,0.2,0,0.3
				c0,0.1,0,0.2,0,0.3c0,0.1,0,0.2,0.1,0.3c0,0.1,0.1,0.2,0.1,0.3c0,0,0,0,0,0c0.1,0.2,0.2,0.4,0.3,0.6c0,0,0,0,0,0
				c0.1,0.2,0.3,0.3,0.4,0.4c0,0,0,0,0,0c0,0,0,0,0,0c0,0,0,0,0,0c0.2,0.1,0.4,0.2,0.5,0.3l0,0c0,0,0,0,0,0c0,0,0,0,0,0c0,0,0,0,0,0
				l0,0c0.2,0.1,0.4,0.1,0.6,0.2c0,0,0,0,0,0c0,0,0,0,0,0c0.1,0,0.2,0,0.3,0c0.1,0,0.2,0,0.3,0c0,0,0,0,0,0c0.1,0,0.2,0,0.3-0.1
				c0.1,0,0.2-0.1,0.3-0.1c0.1,0,0.2-0.1,0.3-0.1c0.1-0.1,0.2-0.1,0.2-0.2c0.1-0.1,0.1-0.1,0.2-0.2c0,0,0.1,0,0.1,0
				c0,0,0,0.1,0.1,0.1c0,0,0,0.1,0.1,0.1l0,0l0,0l0,0l0,0c0,0,0,0,0,0l0,0l0,0c0,0,0,0,0,0c0,0,0.1,0.1,0.1,0.1c0,0,0.1,0.1,0.1,0.1
				c0,0,0.1,0.1,0.1,0.1c0,0,0.1,0,0.1,0.1l0,0l0,0l0,0l0,0c0,0,0,0,0,0h0c0,0,0,0,0,0l0,0l0,0l0,0c0,0,0.1,0,0.1,0
				c0.1,0,0.1,0,0.2,0c0,0,0,0,0,0c0.1,0,0.1,0,0.2,0c0.1,0,0.1,0,0.2,0c0,0,0,0,0,0c0.1,0,0.2,0,0.3-0.1c0,0,0.1,0,0.1,0
				c0,0,0,0,0,0.1c-0.2,0.2-0.3,0.5-0.4,0.7l0,0c-0.1,0.2-0.2,0.4-0.2,0.7l0,0c0,0.2,0,0.3,0,0.5v0c0,0,0,0,0,0
				c0,0.2,0.1,0.3,0.1,0.5c0,0,0,0,0,0c0.1,0.2,0.2,0.3,0.3,0.4c0.1,0.2,0.3,0.3,0.4,0.4c0.2,0.1,0.4,0.2,0.6,0.3c0,0,0,0,0,0
				c0.2,0.1,0.5,0.2,0.8,0.2l0,0c0.3,0,0.5,0,0.8,0h0c0.3,0,0.5-0.1,0.8-0.2l0,0c0.2-0.1,0.4-0.2,0.6-0.4c0.1-0.1,0.2-0.2,0.3-0.2
				c0.1-0.1,0.2-0.2,0.3-0.3c0,0,0,0,0,0c0,0,0,0,0,0l0,0c0,0,0,0,0,0l0,0c0,0,0,0,0,0c0,0,0,0,0,0c0.1-0.1,0.1-0.2,0.2-0.3
				c0,0,0,0,0.1,0c0,0,0,0,0,0.1c0,0.1,0,0.3,0,0.4c0,0,0,0,0,0v0c0,0.1,0,0.2,0.1,0.3c0,0.1,0.1,0.2,0.1,0.3c0,0,0,0,0,0
				c0.1,0.2,0.2,0.4,0.3,0.5c0.1,0.2,0.3,0.3,0.5,0.5c0.2,0.1,0.4,0.3,0.6,0.3c0,0,0,0,0,0c0,0,0,0,0,0c0,0,0,0,0,0
				c0.2,0.1,0.5,0.2,0.7,0.2c0,0,0,0,0,0c0.2,0,0.5,0,0.7,0c0,0,0,0,0,0c0.1,0,0.2,0,0.4-0.1c0.1,0,0.2-0.1,0.3-0.1c0,0,0,0,0,0
				c0.1,0,0.2-0.1,0.3-0.2c0.1-0.1,0.2-0.1,0.3-0.2c0.1-0.1,0.2-0.2,0.4-0.3c0,0,0,0,0,0c0,0,0,0,0,0c0,0,0.1,0,0.1,0c0,0,0,0,0.1,0
				c0,0,0,0,0,0c0,0,0,0,0,0c0,0,0,0,0,0c0,0,0.1,0,0.1,0.1c0,0.1,0,0.2,0,0.3l0,0c0,0,0,0,0,0c0,0.2,0.1,0.3,0.1,0.5c0,0,0,0,0,0
				c0.1,0.1,0.1,0.3,0.2,0.4c0,0,0,0,0,0c0,0,0,0,0,0c0,0,0,0,0,0v0c0.1,0.1,0.3,0.3,0.4,0.4c0.2,0.2,0.5,0.3,0.7,0.4l0,0
				c0,0,0,0,0,0h0l0,0c0.4,0.2,0.8,0.2,1.1,0.3c0,0,0,0,0,0c0.4,0.1,0.8,0.1,1.2,0c0,0,0,0,0,0c0.3,0,0.5-0.1,0.8-0.2c0,0,0,0,0,0
				c0.1,0,0.1,0,0.2-0.1c0,0,0.1,0,0.1,0c0,0,0,0,0,0.1c0,0.1,0,0.2-0.1,0.3c0,0,0,0,0,0c0,0.1,0,0.3,0,0.4c0,0,0,0,0,0
				c0,0.1,0,0.2,0.1,0.2l0,0l0,0c0,0,0,0,0,0c0,0,0,0,0,0c0,0,0,0,0,0c0,0,0,0,0,0c0,0,0,0,0,0c0,0,0,0,0,0c0,0,0,0.1,0.1,0.1l0,0
				c0,0,0,0,0,0l0,0l0,0l0,0c0,0,0,0,0,0c0,0,0,0,0,0l0,0c0,0,0.1,0.1,0.1,0.1c0,0,0,0,0,0c0,0,0,0,0,0l0,0v0
				c0.1,0.1,0.2,0.1,0.3,0.2c0.1,0.1,0.3,0.1,0.4,0.2c0.1,0.1,0.3,0.2,0.4,0.3c0.1,0.1,0.2,0.3,0.3,0.5c0.1,0.2,0.1,0.5,0.1,0.7
				c0,0.2,0,0.5-0.1,0.7c-0.1,0.3-0.2,0.5-0.3,0.7c-0.1,0.2-0.2,0.5-0.4,0.7c-0.2,0.2-0.3,0.4-0.5,0.6c-0.1,0.1-0.2,0.2-0.3,0.3
				c-0.1,0.1-0.2,0.2-0.4,0.2c-0.5,0.3-1.1,0.5-1.7,0.7c-0.3,0.1-0.6,0.1-0.9,0.1c-0.2,0-0.3,0-0.5,0c-0.1,0-0.3,0-0.4,0
				c-0.3,0-0.6-0.1-0.8-0.2l-0.1,0c0.2,0.2,0.5,0.4,0.7,0.6c0.8,0.6,1.8,0.9,2.7,0.9c0.1,0,0.2,0,0.2,0c0.7,0,1.5-0.3,2-0.8
				c0.3-0.2,0.5-0.5,0.8-0.9l0,0l0,0c0,0.1,0,0.2,0,0.3c0.1,0.4,0.2,0.9,0.5,1.2c0.5,0.7,1.2,1.3,2.1,1.7c0.4,0.2,0.9,0.3,1.4,0.3
				c0.1,0,0.2,0,0.3,0c0.4,0,0.7,0,1.1-0.1c0.5-0.1,0.9-0.3,1.3-0.7c0.4-0.3,0.7-0.7,1-1.3c0.3-0.6,0.4-1.2,0.3-1.9
				c0-0.2,0-0.3-0.1-0.5c0-0.2-0.1-0.3-0.2-0.5c-0.1-0.2-0.2-0.4-0.3-0.6c0.2-0.1,0.4-0.2,0.5-0.4c0.1-0.1,0.2-0.2,0.2-0.4
				c0-0.1,0-0.1,0.1-0.2c0.1,0.1,0.2,0.1,0.3,0.2c0.1,0.1,0.3,0.2,0.5,0.3c0.3,0.1,0.6,0.2,0.9,0.2h0c0.3,0,0.5-0.1,0.8-0.2
				c0.2-0.1,0.5-0.2,0.7-0.4c0.4-0.4,0.7-0.9,0.9-1.5c0.1-0.3,0.2-0.6,0.2-0.9c0-0.3,0-0.6,0-0.9c-0.1-0.6-0.3-1.2-0.7-1.6
				c-0.2-0.2-0.4-0.4-0.7-0.5c-0.3-0.1-0.6-0.2-1-0.3c-0.1,0-0.2,0-0.2,0c0.2-0.2,0.4-0.5,0.5-0.8c0.1-0.3,0.1-0.7,0.1-1.1
				c-0.1-0.3-0.2-0.7-0.4-1c-0.2-0.3-0.5-0.6-0.8-0.9c-0.3-0.3-0.7-0.5-1-0.6c-0.2-0.1-0.4-0.2-0.6-0.2c-0.2-0.1-0.4-0.1-0.6-0.1
				c-0.2,0-0.3,0-0.5,0c-0.2,0-0.5,0-0.7,0.1c-0.4,0.1-0.7,0.3-1.1,0.5c-0.2,0.1-0.3,0.3-0.5,0.5c0,0,0,0.1,0,0.1l-0.1-0.1l-0.1,0
				c-0.5-0.2-1.1-0.5-1.8-0.8c-0.6-0.3-1.2-0.7-1.7-1.1l0,0l-0.1,0l-0.2-0.1l0,0c-0.4-0.3-1-0.6-1.5-0.9c-0.2-0.1-0.5-0.3-0.7-0.4
				l0,0l-0.2-0.1c-0.3-0.2-0.7-0.4-1-0.5c-1.6-0.8-2.8-1.4-4-1.9c-0.1,0-0.2-0.1-0.3-0.1l0,0l-0.1,0c-0.2-0.1-0.4-0.1-0.6-0.2
				c-0.3-0.1-0.6-0.2-1-0.4c-0.3-0.2-0.6-0.3-0.9-0.5c-0.3-0.2-0.7-0.3-1-0.5c-0.4-0.2-0.7-0.3-1.1-0.5c0.1-1.1,0-2.1-0.4-3
				c-0.2-0.5-0.5-0.9-0.8-1.3c-0.4-0.4-0.8-0.7-1.4-0.8c-0.3-0.1-0.5-0.2-0.8-0.2c-0.1,0-0.2,0-0.2,0C141.8,9.8,141.6,9.8,141.4,9.8
				 M146.5,25.3C146.5,25.3,146.5,25.3,146.5,25.3C146.5,25.3,146.5,25.3,146.5,25.3 M151.6,27.8C151.6,27.8,151.6,27.8,151.6,27.8
				C151.6,27.8,151.6,27.8,151.6,27.8L151.6,27.8z M155.9,28.7L155.9,28.7C155.9,28.7,155.9,28.7,155.9,28.7 M156.2,29.8L156.2,29.8
				L156.2,29.8z M156.2,29.8L156.2,29.8L156.2,29.8L156.2,29.8z M156.3,30C156.3,30,156.3,30,156.3,30C156.3,30,156.3,30,156.3,30
				C156.3,30,156.3,30,156.3,30"/>
			<path class="st4" d="M132,14.3c-0.5,0.1-1.1,0.4-1.5,0.8c-0.4,0.4-0.8,0.9-1,1.5c-0.2,0.6-0.2,1.2,0,1.8c0.1,0.2,0.3,0.3,0.5,0.3
				c0.1,0,0.2-0.1,0.3-0.2c0.1-0.1,0.1-0.2,0.1-0.4c0-0.2-0.1-0.5-0.1-0.7c0-0.2,0-0.5,0.1-0.7c0.1-0.2,0.2-0.5,0.3-0.7
				c0.1-0.2,0.3-0.5,0.5-0.7c0.2-0.2,0.4-0.3,0.6-0.5c0.2-0.1,0.3-0.2,0.5-0.2c0.2,0,0.3-0.1,0.5-0.1c0.1,0,0.3,0,0.4,0.1
				c0,0,0.1,0,0.1,0c0.1,0,0.3,0,0.3-0.1c0-0.1,0-0.3-0.1-0.3c-0.3-0.1-0.5-0.1-0.8-0.1c0,0-0.1,0-0.1,0
				C132.5,14.2,132.3,14.2,132,14.3 M133.4,14.8C133.4,14.8,133.4,14.8,133.4,14.8C133.4,14.8,133.4,14.8,133.4,14.8"/>
			<path class="st4" d="M129.1,21.6c-0.2,0.2-0.4,0.3-0.6,0.5c-0.2,0.2-0.3,0.4-0.4,0.6c-0.2,0.4-0.3,0.9-0.4,1.4c0,0.2,0,0.5,0,0.7
				c0,0.2,0.1,0.5,0.2,0.7c0.1,0.2,0.2,0.5,0.3,0.7c0.1,0.2,0.3,0.4,0.5,0.6c0.1,0.1,0.3,0.3,0.5,0.4c0.2,0.1,0.4,0.2,0.6,0.3
				c0.2,0.1,0.5,0.1,0.7,0.1c0.1,0,0.3,0,0.4,0c0.2,0,0.3-0.1,0.5-0.1c0.1,0,0.1-0.1,0.2-0.2c0.1-0.1,0.1-0.2,0.1-0.4
				c0-0.1-0.1-0.2-0.2-0.3c-0.1-0.1-0.2-0.1-0.4-0.1c-0.3,0.1-0.5,0.1-0.8,0.1c-0.2,0-0.3,0-0.5-0.1c-0.2-0.1-0.3-0.1-0.5-0.2
				c-0.2-0.1-0.3-0.2-0.5-0.4c-0.2-0.2-0.3-0.4-0.5-0.6c-0.1-0.2-0.2-0.4-0.2-0.6c-0.1-0.3-0.1-0.5-0.1-0.8c0-0.2,0-0.5,0.1-0.7
				c0.1-0.2,0.2-0.5,0.3-0.7c0.1-0.2,0.3-0.4,0.4-0.5c0.1-0.1,0.2-0.2,0.3-0.2C129.3,21.7,129.3,21.6,129.1,21.6
				C129.2,21.6,129.1,21.6,129.1,21.6 M129,22C129,22,129,22,129,22C129,22,129,22,129,22 M128.6,22.5
				C128.6,22.5,128.6,22.5,128.6,22.5C128.6,22.5,128.6,22.5,128.6,22.5 M128.3,23.2C128.3,23.2,128.3,23.2,128.3,23.2
				C128.3,23.2,128.3,23.2,128.3,23.2"/>
			<path class="st4" d="M132.8,26.4c-0.1,0.1-0.1,0.2-0.1,0.3c0,0.1,0.1,0.2,0.2,0.3c0.1,0.1,0.2,0.1,0.3,0.1c0.1,0,0.2-0.1,0.3-0.2
				c0.1-0.1,0.1-0.2,0.1-0.3s-0.1-0.2-0.2-0.3c-0.1-0.1-0.2-0.1-0.3-0.1C133,26.2,132.9,26.3,132.8,26.4"/>
			<path class="st4" d="M152.2,30.4c-0.5,0.7-0.7,1.5-0.7,2.3c0,0.2,0,0.4,0.1,0.6c0,0.2,0.1,0.4,0.2,0.6c0.2,0.4,0.5,0.7,0.9,1
				c0.2,0.1,0.5,0,0.6-0.2c0.1-0.1,0.1-0.2,0-0.3c0-0.1-0.1-0.2-0.2-0.3c-0.1-0.1-0.2-0.1-0.3-0.2c-0.1-0.1-0.2-0.2-0.3-0.3
				c-0.1-0.1-0.2-0.3-0.2-0.4c-0.1-0.2-0.1-0.4-0.2-0.6c0-0.3,0-0.5,0-0.8c0-0.3,0.1-0.5,0.2-0.7c0.1-0.2,0.2-0.3,0.3-0.5
				c0.1-0.1,0-0.2-0.1-0.3c0,0-0.1,0-0.1,0C152.3,30.3,152.3,30.3,152.2,30.4"/>
			<path class="st3" d="M119.5,15.6c-1,0-1.9,0.7-2.2,1.7c-0.1,0.6,0,1.2,0.3,1.7c0.3,0.5,0.8,0.9,1.4,1c0.2,0,0.3,0.1,0.5,0.1
				c1,0,1.9-0.7,2.2-1.7c0.1-0.6,0-1.2-0.3-1.7c-0.3-0.5-0.8-0.9-1.4-1C119.8,15.6,119.6,15.6,119.5,15.6"/>
			<path class="st3" d="M130.4,8.3L130.4,8.3c-0.5,0-0.9,0.3-1,0.8c-0.1,0.3,0,0.5,0.1,0.8c0.1,0.2,0.4,0.4,0.6,0.5
				c0.1,0,0.2,0,0.2,0c0.5,0,0.9-0.3,1-0.8c0.1-0.3,0-0.5-0.1-0.8c-0.1-0.2-0.4-0.4-0.6-0.5C130.6,8.3,130.5,8.3,130.4,8.3"/>
			<path class="st3" d="M135.3,7.6c-1.1,0-2.1,0.8-2.3,1.8c-0.3,1.3,0.5,2.5,1.8,2.8c0.2,0,0.4,0.1,0.5,0.1c1.1,0,2.1-0.8,2.3-1.8
				c0.1-0.6,0-1.2-0.3-1.8c-0.3-0.5-0.9-0.9-1.5-1.1C135.7,7.6,135.5,7.6,135.3,7.6"/>
			<path class="st3" d="M169.5,36.4c-1.3,0-2.4,0.9-2.7,2.1c-0.2,0.7,0,1.4,0.3,2.1c0.4,0.6,1,1.1,1.7,1.2c0.2,0,0.4,0.1,0.6,0.1
				c1.3,0,2.4-0.9,2.7-2.1c0.2-0.7,0-1.4-0.3-2.1s-1-1.1-1.7-1.2C169.9,36.5,169.7,36.4,169.5,36.4"/>
			<path class="st3" d="M175.6,41.7c-0.6,0-1.1,0.4-1.2,1c-0.1,0.3,0,0.7,0.2,0.9c0.2,0.3,0.5,0.5,0.8,0.6c0.1,0,0.2,0,0.3,0
				c0.6,0,1.1-0.4,1.2-1c0.1-0.3,0-0.7-0.2-0.9c-0.2-0.3-0.5-0.5-0.8-0.6C175.8,41.7,175.7,41.7,175.6,41.7"/>
			<path class="st3" d="M172.6,33.1c-0.3,0-0.5,0.2-0.6,0.5c-0.1,0.3,0.1,0.7,0.5,0.7c0,0,0.1,0,0.1,0c0.3,0,0.5-0.2,0.6-0.5
				c0-0.2,0-0.3-0.1-0.5c-0.1-0.1-0.2-0.2-0.4-0.3C172.7,33.1,172.6,33.1,172.6,33.1"/>
			<path class="st4" d="M119.3,16.7c0,0.3,0.2,0.5,0.5,0.5c0.3,0,0.5-0.2,0.5-0.5s-0.2-0.5-0.5-0.5
				C119.5,16.2,119.3,16.5,119.3,16.7"/>
			<path class="st4" d="M120.5,17.3c0,0.1,0.1,0.3,0.3,0.3c0.1,0,0.3-0.1,0.3-0.3s-0.1-0.3-0.3-0.3
				C120.6,17.1,120.5,17.2,120.5,17.3"/>
			<path class="st4" d="M135,8.9c0,0.5,0.4,0.9,0.9,0.9c0.5,0,0.9-0.4,0.9-0.9s-0.4-0.9-0.9-0.9C135.4,8.1,135,8.5,135,8.9"/>
			<path class="st4" d="M136.4,10.1c0,0.1,0.1,0.3,0.3,0.3c0.1,0,0.3-0.1,0.3-0.3c0-0.1-0.1-0.3-0.3-0.3
				C136.6,9.8,136.4,10,136.4,10.1"/>
			<path class="st4" d="M130.3,8.9c0,0.2,0.2,0.3,0.3,0.3c0.2,0,0.3-0.2,0.3-0.3s-0.2-0.3-0.3-0.3C130.5,8.5,130.3,8.7,130.3,8.9"/>
			<path class="st4" d="M168.1,37.7c0,0.5,0.4,0.9,0.9,0.9s0.9-0.4,0.9-0.9s-0.4-0.9-0.9-0.9S168.1,37.2,168.1,37.7"/>
			<path class="st4" d="M167.6,38.7c0,0.2,0.1,0.3,0.3,0.3c0.2,0,0.3-0.1,0.3-0.3c0-0.2-0.1-0.3-0.3-0.3
				C167.7,38.4,167.6,38.5,167.6,38.7"/>
			<path class="st4" d="M174.9,42.5c0,0.2,0.2,0.4,0.4,0.4c0.2,0,0.4-0.2,0.4-0.4c0-0.2-0.2-0.4-0.4-0.4
				C175.1,42.1,174.9,42.3,174.9,42.5"/>
		</g>
		<g>
			<g>
				<path class="st5" d="M166.1,19.8c-0.1,0-0.1,0-0.2,0c0,0,0,0,0,0c0,0,0,0-0.1-0.1c0,0,0-0.1-0.1-0.1c-2.4-1.8-4.9-3.3-7.4-4.7
					c-2.7-1.5-5.4-2.6-8-3.6c-0.8-0.3-1.5-0.5-2.3-0.7c0.1-0.2-0.1-0.4-0.2-0.4c0,0-0.1,0-0.1,0c-0.1,0-0.1,0-0.2,0
					c-0.1,0-0.1,0.1-0.2,0.2c0,0,0,0-0.1,0.1c-0.1,0.1-0.1,0.2-0.2,0.3c-0.1,0.1-0.1,0.2-0.2,0.3c-0.2,0.2-0.3,0.4-0.5,0.6
					c-0.3,0.4-0.7,0.9-1.1,1.2c-0.7,0.6-1.4,1.2-2.2,1.6c-0.4,0.2-0.8,0.4-1.3,0.5c-0.1,0-0.1,0-0.2,0c-0.1,0-0.2,0.1-0.2,0.2
					c0,0.1,0.1,0.2,0.2,0.2c0.6-0.1,1.2-0.3,1.8-0.6c0.5-0.3,1-0.6,1.5-0.9c-0.5,0.5-1.1,1-1.6,1.4c-0.5,0.4-1.1,0.7-1.7,1
					c-0.1,0-0.1,0.2-0.1,0.3c0.1,0.1,0.2,0.1,0.3,0.1c1-0.5,2-1.1,2.9-1.8c-0.7,0.7-1.4,1.3-2.1,2l-0.4,0.3c0,0,0,0,0,0
					c0,0,0,0-0.1,0c0,0-0.1,0.1-0.1,0.1c0,0,0,0.1,0,0.1c1.5,1.8,3.3,3.4,5.4,4.9c2.1,1.5,4.4,2.7,6.8,3.6c1.2,0.5,2.4,0.8,3.6,1.1
					c1.2,0.3,2.4,0.5,3.6,0.6c0.5,0,1,0.1,1.5,0.1c0.3,0,0.5,0,0.8,0c0,0,0.1,0,0.1-0.1c0,0,0.1-0.1,0-0.1c0,0,0,0,0-0.1
					c0,0,0,0,0,0c0-0.3,0-0.7,0.1-1c0.1-1.3,0.4-2.5,0.7-3.6c0,0.2,0,0.3-0.1,0.5c-0.1,0.6-0.1,1.1-0.1,1.7c0,0.6,0,1.2,0,1.8
					c0,0.1,0.1,0.2,0.2,0.2c0.1,0,0.2-0.1,0.2-0.2c0-0.9,0.1-1.8,0.2-2.8c0-0.3,0.1-0.6,0.2-0.9c0.1-0.3,0.2-0.7,0.2-1
					c0.1-0.3,0.2-0.7,0.3-1c0.1-0.2,0.1-0.3,0.2-0.5c0.1-0.2,0.1-0.3,0.2-0.5C166.3,20,166.2,19.9,166.1,19.8z"/>
				<path class="st2" d="M150.8,11.5C150.8,11.5,150.8,11.5,150.8,11.5c-0.4,1-0.9,2-1.4,3c-0.7,1.2-1.4,2.4-2.2,3.6
					c-0.6,0.9-1.3,1.8-2.1,2.6c0.3,0.3,0.7,0.6,1.1,0.9c0.5-0.6,1-1.3,1.5-2c0.7-1,1.4-2,1.9-3c0.5-0.9,1-1.9,1.3-2.8
					c0.3-0.7,0.5-1.3,0.7-1.9C151.4,11.7,151.1,11.6,150.8,11.5L150.8,11.5z"/>
				<path class="st2" d="M154.5,13C154.5,13,154.5,13,154.5,13L154.5,13c-0.4,1.1-0.8,2.3-1.4,3.5c-1,2.1-2.3,4.2-3.6,6.2l-0.5,0.8
					c0.4,0.2,0.8,0.5,1.1,0.7c0.7-1,1.4-2,2-3.1l0,0l0.1-0.1c1.2-2.2,2.3-4.7,3.2-7.4C155.1,13.3,154.8,13.1,154.5,13L154.5,13"/>
				<path class="st2" d="M158.7,15.1C158.7,15.1,158.7,15.1,158.7,15.1c-0.4,0.8-0.8,1.6-1.2,2.5c-0.5,1-0.9,1.9-1.4,2.9l0,0
					c-0.8,1.7-1.7,3.5-2.5,5.2c0.2,0.1,0.4,0.2,0.6,0.2c0.2,0.1,0.3,0.1,0.5,0.2c0.3-0.8,0.7-1.7,1.2-2.7c0.4-0.9,0.8-1.8,1.2-2.6
					l0.1-0.1l0-0.1c0.8-1.7,1.6-3.4,2.3-5.2C159.2,15.4,159,15.2,158.7,15.1L158.7,15.1"/>
				<path class="st2" d="M162.7,17.5L162.7,17.5L162.7,17.5c-0.3,0.6-0.5,1.1-0.7,1.7c-1.2,2.7-2.2,5.4-3.1,8.2
					c0.4,0.1,0.7,0.1,1.1,0.2c0.1-0.5,0.2-1,0.4-1.6c0.2-0.7,0.5-1.5,0.8-2.1l0.1-0.2l0.1-0.1c0.1-0.2,0.2-0.5,0.3-0.7
					c0.1-0.3,0.2-0.5,0.3-0.8l0-0.1l0.1-0.2c0.5-1.4,0.9-2.6,1.5-3.8C163.2,17.8,163,17.7,162.7,17.5
					C162.7,17.5,162.7,17.5,162.7,17.5"/>
			</g>
			<path class="st1" d="M149,6.7C148.9,6.7,148.9,6.7,149,6.7c-0.5,0.1-0.8,0.4-1.2,0.7c-0.3,0.3-0.6,0.7-0.8,1.1
				c-0.2,0.4-0.3,0.8-0.4,1.3s-0.1,0.9,0,1.3c0,0.1,0,0.1,0.1,0.1l0,0c0,0,0,0,0,0l4.1,1.9l4.1,1.9l8.1,3.9l3.3,1.6l1.7,0.8l0.5,0.7
				c1.4,2.1,2.9,4.3,4.7,6.1c0.5,0.5,1,0.9,1.6,1.4c0.5,0.4,1.1,0.9,1.7,1.3c1.1,0.8,2.3,1.5,3.6,2.2c1.6,0.9,3.4,1.6,5.2,2.1
				c0,0,0,0,0.1,0c0.1,0,0.1,0,0.1-0.1c0.1,0,0.1,0,0.1-0.1c0.6-0.8,1-1.9,1.1-3.3c0-0.6,0-1.2-0.1-1.8c-0.1-0.6-0.2-1.2-0.3-1.7
				c-0.1-0.3-0.1-0.5-0.2-0.8c0,0-0.1-0.1-0.1-0.1c0,0,0,0,0,0c0,0,0,0-0.1,0c-1.5-0.4-3-1-4.5-1.7c0,0,0,0,0,0s0,0,0,0
				c-1.1-0.6-2.2-1.2-3.2-1.9c-1-0.7-2-1.5-3-2.3l-0.1-0.1l0,0l0,0c-1.4-1.2-2.7-2.6-4.1-4.3c0,0,0,0-0.1-0.1c0,0,0,0-0.1,0
				l-3.5-1.7l-3.5-1.7c-2.8-1.3-5.6-2.7-8.3-4l-2.8-1.3l-1.4-0.7L149.6,7l-0.5-0.2C149,6.7,149,6.7,149,6.7C149,6.7,149,6.7,149,6.7
				"/>
			<path class="st6" d="M146.6,11.2c0,0.1,0,0.1,0.1,0.1c0,0,0,0,0,0c0,0,0,0,0,0l4.1,1.9l4.1,1.9l8.1,3.9l3.3,1.6l1.7,0.8l0.5,0.7
				c1.4,2.1,2.9,4.3,4.7,6.1c0.5,0.5,1,0.9,1.6,1.4c0.5,0.4,1.1,0.9,1.7,1.3c1.1,0.8,2.3,1.5,3.6,2.2c1.6,0.9,3.4,1.6,5.2,2.1
				c0,0,0,0,0.1,0c0.1,0,0.1,0,0.1-0.1c0.1,0,0.1,0,0.1-0.1c0.5-0.7,0.9-1.6,1-2.6c-0.1,0-0.1,0-0.2,0c-1.2-0.2-2.3-0.5-3.4-0.9
				c-1.2-0.4-2.3-0.9-3.4-1.4c-2.2-1.1-4.2-2.5-6-4.2c-1.7-1.6-3.2-3.5-4.2-5.6c0,0,0,0,0,0c0,0,0,0,0-0.1c-0.9-0.4-1.9-0.9-2.8-1.3
				c-0.9-0.4-1.9-0.9-2.8-1.3c-2.9-1.3-5.9-2.7-8.8-4c-2.8-1.2-5.5-2.5-8.2-3.8C146.5,10.4,146.5,10.8,146.6,11.2"/>
			<path class="st5" d="M149.2,8c0,0.1,0,0.2,0.1,0.2c0.6,0.3,1.3,0.6,1.9,1c0.6,0.3,1.3,0.7,1.9,1c0,0,0,0,0,0c0,0,0,0,0,0
				c0,0,0,0,0,0c0,0,0,0,0,0c0.2,0.1,0.4,0.2,0.5,0.3c0.2,0.1,0.3,0.2,0.5,0.2c0,0,0,0,0,0c0,0,0,0,0,0c0,0,0,0,0,0c0,0,0,0,0,0
				c0.3,0.2,0.7,0.4,1,0.5c0.3,0.2,0.7,0.4,1,0.5c0.7,0.4,1.4,0.7,2.1,1c0.7,0.3,1.4,0.7,2.1,1c0.6,0.3,1.3,0.6,1.9,0.9
				c0.1,0,0.2,0.1,0.3,0.1c0,0,0.1,0,0.1,0c0.1,0,0.1,0,0.2,0c0.1,0,0.2,0,0.3-0.1c0.1-0.1,0.1-0.3,0-0.4c-0.1-0.1-0.3-0.2-0.4-0.3
				c-0.2-0.1-0.3-0.2-0.5-0.2c-0.3-0.2-0.6-0.3-0.9-0.5c-0.7-0.3-1.4-0.6-2-1c-0.7-0.4-1.5-0.7-2.2-1c-0.7-0.3-1.4-0.6-2.1-0.9
				c-1-0.4-2-0.9-3-1.3c-0.9-0.4-1.8-0.8-2.7-1.2c0,0,0,0-0.1,0C149.2,7.9,149.2,8,149.2,8 M154.1,10.7
				C154.1,10.7,154.1,10.7,154.1,10.7C154.1,10.7,154.1,10.7,154.1,10.7C154.1,10.7,154.1,10.7,154.1,10.7 M153.1,10.2
				C153.1,10.2,153.1,10.2,153.1,10.2C153.1,10.2,153.1,10.2,153.1,10.2C153.1,10.2,153.1,10.2,153.1,10.2"/>
			<path class="st5" d="M164,15c-0.1,0.1-0.2,0.2-0.2,0.3c0,0.1,0,0.3,0.1,0.4c0.1,0.1,0.2,0.2,0.3,0.2c0.1,0,0.2,0,0.3-0.1
				c0.1-0.1,0.2-0.2,0.2-0.3c0-0.1,0-0.3-0.1-0.4c-0.1-0.1-0.2-0.2-0.3-0.2C164.2,14.9,164.1,14.9,164,15"/>
		</g>
	</g>
	<g class="st0">
		<path class="st3" d="M9.4,25c-0.4,0.4-0.9,0.8-1.6,1c0.5,0.1,0.9,0.3,1.2,0.8c0.3,0.4,0.5,0.9,0.5,1.5c0,0.2,0,0.3,0,0.5
			c-0.1,0.6-0.3,1.1-0.7,1.5C8.5,30.7,8,31,7.4,31.3c-0.6,0.3-1.3,0.4-2,0.4H0.8l2-11.3h4.3c1,0,1.8,0.2,2.4,0.7
			c0.5,0.4,0.8,1,0.8,1.7c0,0.2,0,0.3,0,0.5C10.1,24,9.9,24.5,9.4,25z M7.8,28.1c0-0.4-0.2-0.8-0.5-1.1C7,26.8,6.5,26.7,6,26.7H3.6
			l-0.6,3.6h2.5c0.6,0,1.1-0.2,1.6-0.5c0.4-0.3,0.7-0.7,0.8-1.3C7.8,28.3,7.8,28.2,7.8,28.1z M8.4,23.2c0-0.4-0.1-0.7-0.4-1
			c-0.3-0.2-0.7-0.4-1.2-0.4H4.4l-0.6,3.3h2.3c0.6,0,1.1-0.1,1.5-0.4c0.4-0.3,0.6-0.7,0.7-1.2C8.4,23.4,8.4,23.3,8.4,23.2z"/>
		<path class="st3" d="M14.9,20.4l-2,11.3H11l2-11.3H14.9z"/>
		<path class="st3" d="M18.9,21.9l-0.6,3.4h3.9l-0.2,1.4H18l-0.6,3.5h4.4l-0.3,1.4h-6.2l2-11.3h6.2l-0.3,1.4H18.9z"/>
		<path class="st3" d="M33,31.7h-1.8l-4.1-8.4l-1.5,8.4h-1.8l2-11.3h1.8l4.1,8.4l1.5-8.4H35L33,31.7z"/>
		<path class="st3" d="M38.5,20.4l1.7,9.3l5-9.3h2l-6.2,11.3h-2.1l-2.3-11.3H38.5z"/>
		<path class="st3" d="M50.3,21.9l-0.6,3.4h3.9l-0.2,1.4h-3.9l-0.6,3.5h4.4l-0.3,1.4h-6.2l2-11.3h6.2l-0.3,1.4H50.3z"/>
		<path class="st3" d="M64.4,31.7h-1.8l-4.1-8.4L57,31.7h-1.8l2-11.3H59l4.1,8.4l1.5-8.4h1.8L64.4,31.7z"/>
		<path class="st3" d="M70.7,20.4l-2,11.3h-1.8l2-11.3H70.7z"/>
		<path class="st3" d="M79.5,21c0.8,0.4,1.4,0.9,1.8,1.5c0.4,0.7,0.6,1.5,0.6,2.4c0,0.4,0,0.8-0.1,1.2c-0.2,1.1-0.6,2.1-1.3,3
			c-0.6,0.8-1.4,1.5-2.4,1.9c-1,0.4-2.1,0.7-3.3,0.7h-3.7l2-11.3h3.7C77.8,20.4,78.7,20.6,79.5,21z M78.3,29.2
			c0.8-0.7,1.4-1.8,1.6-3.1c0.1-0.4,0.1-0.7,0.1-1.1c0-1-0.3-1.8-0.9-2.3c-0.6-0.5-1.4-0.8-2.6-0.8h-1.8l-1.5,8.4h1.8
			C76.4,30.3,77.4,29.9,78.3,29.2z"/>
		<path class="st3" d="M85.3,31.2c-0.7-0.4-1.3-1-1.7-1.7C83.2,28.8,83,28,83,27.1c0-1.3,0.3-2.4,0.9-3.5c0.6-1,1.4-1.8,2.4-2.4
			s2.2-0.9,3.4-0.9c1,0,1.8,0.2,2.5,0.6c0.7,0.4,1.3,1,1.7,1.7c0.4,0.7,0.6,1.5,0.6,2.5c0,1.3-0.3,2.4-0.9,3.5
			c-0.6,1-1.4,1.8-2.4,2.4c-1,0.6-2.2,0.9-3.4,0.9C86.8,31.8,86,31.6,85.3,31.2z M90.4,29.5c0.7-0.5,1.2-1.1,1.6-1.8
			c0.4-0.8,0.6-1.6,0.6-2.5c0-1-0.3-1.8-0.8-2.3c-0.6-0.6-1.3-0.8-2.3-0.8c-0.9,0-1.7,0.2-2.4,0.7c-0.7,0.4-1.2,1-1.6,1.8
			c-0.4,0.8-0.6,1.6-0.6,2.5c0,1,0.3,1.8,0.8,2.3c0.6,0.6,1.3,0.9,2.3,0.9C88.9,30.1,89.7,29.9,90.4,29.5z"/>
	</g>
</g>
</svg>
